<?xml version="1.0" encoding="UTF-8"?>
<svg xmlns="http://www.w3.org/2000/svg" version="1.1" viewBox="0 0 432.8 439.2">
  <!-- Generator: Adobe Illustrator 30.3.0, SVG Export Plug-In . SVG Version: 2.1.3 Build 157)  -->
  <defs>
    <style>
      .st0 {
        fill: #29004c;
      }

      .st1 {
        fill: #0e3b47;
      }

      .st2 {
        fill: #7d0498;
      }

      .st3 {
        fill: #133748;
      }

      .st4 {
        opacity: .1;
      }

      .st4, .st5 {
        fill: #fff;
      }

      .st6 {
        fill: #ff61ff;
      }

      .st7 {
        fill: #0d0619;
      }

      .st8 {
        fill: #b845ed;
      }

      .st9 {
        fill: #0b0007;
      }

      .st10 {
        fill: #06154a;
      }

      .st11 {
        fill: #fed7ff;
      }

      .st12 {
        fill: #9b00ff;
      }

      .st13 {
        fill: #ffe7ff;
      }

      .st14 {
        fill: #f3f;
      }

      .st15 {
        fill: #7e2fa8;
      }
    </style>
  </defs>
  <g id="Layer_8">
    <path class="st8" d="M146.8,111.5c-2.3,1.3-4.5,2.1-6.7,2.4s-4.4-.2-6.4-1.5c-2.1-1.2-4.1-3.4-5.9-6.6-.8-1.3-1.7-2.9-2.8-4.8-1.1-1.9-2.2-3.9-3.5-6-1.2-2.1-2.5-4.3-3.7-6.5-1.2-2.2-2.3-4.2-3.5-6.1s-2.1-3.6-2.9-5-1.4-2.5-1.8-3.2c-.7-1.2-1.3-1.9-1.9-2.1s-1.3,0-2.2.5c-.8.5-1.7,1-2.5,1.5-.8.5-1.4.8-1.6,1-2,1.2-4.1,1.5-6.3.9s-4.4-2.7-6.7-6.5c-1.4-2.4-2.2-4.6-2.5-6.6s.2-4,1.5-5.9c1.3-2,3.4-4.1,6.4-6.4,3-2.3,7.1-4.9,12.3-8,5.2-3.1,9.5-5.3,13-6.8,3.5-1.5,6.3-2.3,8.7-2.5,2.3-.1,4.3.4,5.9,1.6,1.6,1.2,3.1,3,4.5,5.4,2.2,3.8,3,6.8,2.4,9-.6,2.2-1.9,3.9-3.8,5-.4.3-1,.6-1.7,1s-1.6.9-2.6,1.5c-.8.5-1.3,1.1-1.5,1.7-.2.6.1,1.5.8,2.7.4.6,1,1.7,1.9,3.1.9,1.4,1.9,3.1,3,5,1.1,1.9,2.3,3.9,3.6,6,1.3,2.1,2.6,4.2,3.9,6.4s2.4,4.1,3.6,6c1.1,1.9,2.1,3.4,2.9,4.8,1.9,3.2,2.8,5.9,2.9,8.3,0,2.4-.5,4.5-1.7,6.3-1.2,1.8-3,3.3-5.2,4.6,0,0,0,0,0,0Z"/>
    <path class="st8" d="M188.3,94.9c-3.3,0-5.9-.9-8-3.1-2-2.1-3.6-5.2-4.4-9.3-.6-3.3-1.1-7.3-1.5-11.8-.4-4.6-.7-9.8-.8-15.6-.1-5.7-.1-10.8,0-15.4.2-4.6.4-8.6.9-12,.7-3.9,2.1-6.9,4.2-9,2.1-2.2,4.8-3.3,8.2-3.4,3.6,0,6.3.7,8.1,2.4,1.8,1.7,2.8,4.1,2.9,7.3.1,1.1.2,2.4.2,3.7,0,1.3,0,2.6,0,3.8s0,2.3,0,3.2c0,1.2.3,2.2.7,2.8.4.7,1.3,1.1,2.6,1.1.7,0,1.3,0,2,0s1.5,0,2.3,0,1.3,0,2,0c.7,0,1.2,0,1.7-.2,1.6-.1,2.5-.5,2.9-1.2s.6-1.7.5-2.9c0-1,0-2.1,0-3.4s0-2.5,0-3.9c0-1.3,0-2.4,0-3.4,0-3.2.8-5.6,2.6-7.4,1.7-1.8,4.3-2.7,7.8-2.8,3.6,0,6.5.9,8.7,3,2.2,2.1,3.7,5,4.6,8.8.6,3.4,1.1,7.4,1.5,11.9.4,4.6.7,9.7.8,15.4.1,5.9.1,11.1,0,15.7-.2,4.6-.4,8.5-.9,11.9-.7,4-2,7.2-4,9.5-2,2.3-4.6,3.5-7.9,3.6-3.7,0-6.6-1-8.5-3.3s-3-5.5-3.2-9.5c0-1.5,0-3.1-.2-4.8,0-1.7-.1-3.6-.2-5.4,0-1.8,0-3.5-.1-5.1,0-1.3-.3-2.3-.7-2.9s-1.4-1-2.8-1c-.7,0-1.3,0-1.9,0-.6,0-1.2,0-1.9,0-.8,0-1.6,0-2.3,0s-1.4,0-2,.2c-1.3.1-2.1.5-2.5,1.2-.4.7-.6,1.6-.5,2.9,0,1.5,0,3.1.1,5,0,1.9,0,3.7.1,5.4s0,3.4,0,4.8c0,4.2-.9,7.4-2.7,9.7-1.8,2.3-4.6,3.6-8.3,3.6h0q0,0,0,0Z"/>
    <path class="st8" d="M270,109.6c-4.9-2.6-8.8-4.8-11.5-6.8-2.8-2-4.7-3.9-5.7-5.6s-1.6-3.5-1.6-5.4c0-1.5.6-3.8,1.6-6.9,1-3.1,2.4-6.7,4.4-10.7,1.9-4.1,4.1-8.6,6.7-13.4,2.6-4.9,5-9.3,7.2-13.1,2.3-3.8,4.3-6.9,6.2-9.4,1.9-2.5,3.5-4.2,4.7-5.2,1.6-1.1,3.4-1.7,5.4-1.8s4.6.4,7.7,1.6c3.1,1.2,7,2.9,11.7,5.4,6,3.1,10.6,5.9,13.9,8.2,3.3,2.4,5.3,4.7,6.1,6.9.8,2.2.4,4.7-.9,7.4-1.4,2.8-3.2,4.5-5.5,5.2s-5,.2-8.3-1.6c-1.7-.9-3.3-1.7-4.8-2.6-1.6-.9-3.1-1.8-4.7-2.7-1.6-.9-3.1-1.8-4.7-2.6-1-.5-1.8-.7-2.4-.6s-1.2.7-1.9,1.8c-.4.8-.8,1.6-1.3,2.3s-.8,1.5-1.2,2.2c-.5.9-.6,1.7-.3,2.2.3.5.9,1.1,2,1.7,1.8.9,3.4,1.7,4.8,2.4,1.4.7,2.7,1.3,4.1,2s2.8,1.4,4.4,2.2c3.2,1.7,5.1,3.4,5.8,5.2.7,1.8.4,4-.9,6.4-1.3,2.5-2.9,3.9-4.8,4.4s-4.3,0-7.1-1.5c-2-1.1-4.3-2.2-6.7-3.6-2.4-1.3-5-2.7-7.5-4-1.5-.8-2.5-.5-3.1.6-.4.9-.9,1.7-1.4,2.5s-.9,1.6-1.2,2.3c-.3.7-.6,1.3-.8,1.8-.2.5-.4.9-.4,1-.3.8-.4,1.4-.2,2,.1.6.7,1.1,1.5,1.6,2.3,1.2,4.4,2.3,6.3,3.3,1.9,1,3.7,2,5.5,2.8s3.4,1.8,5.1,2.7c2,1.1,3.4,2.5,4.2,4.3.8,1.8.4,4-.9,6.6-.9,1.7-2,3-3.2,4-1.3,1-3,1.5-5.1,1.6-2.1,0-4.8-.5-8.3-1.6-3.4-1.1-7.6-3-12.6-5.6,0,0-.1,0-.1,0Z"/>
    <path class="st4" d="M323.6,123.9c-1.2-1.7-1.6-3.6-1.4-5.5.3-2,1.4-3.6,3.3-4.8.7-.5,1.6-.9,2.7-1.2s2.2-.5,3.5-.5c1.2-.1,2.5-.2,3.9-.3,1.4,0,2.7-.2,3.9-.3,1.2-.2,2.2-.4,2.9-.7,1.1-.4,1.6-1.2,1.4-2.6-.2-.8-.5-1.8-.8-2.9-.4-1.1-.8-2.2-1.2-3.2-1.1-2.5-1.4-4.8-1.1-6.7.3-2,1.4-3.6,3.2-4.8,2.1-1.4,4-1.9,5.9-1.5s3.4,1.6,4.7,3.5c.7.9,1.2,1.9,1.7,2.9.5,1,.9,1.9,1.4,2.9.5,1,.9,1.8,1.3,2.6.4.8.8,1.4,1.3,1.9,1,.9,2.1,1.2,3.2,1,.8-.2,1.6-.5,2.5-1s1.9-.9,2.9-1.4c1-.5,2-1,2.9-1.6,2.6-1.2,4.9-1.7,7-1.5,2,.3,3.6,1.3,4.9,3.1,1.2,1.7,1.6,3.6,1.1,5.6s-1.7,4-3.9,5.9c-.8.8-1.6,1.7-2.6,2.4-.9.8-1.7,1.6-2.4,2.4s-1.3,1.5-1.8,2.1c-.4,1.1-.3,2.1.2,3.1.2.6.7,1.3,1.2,1.9.6.6,1.2,1.3,2,2.1s1.4,1.5,2.2,2.3,1.4,1.6,2,2.5c1.3,1.9,1.8,3.7,1.6,5.6s-1.4,3.5-3.5,4.9c-1.8,1.2-3.7,1.7-5.7,1.2-2-.4-3.9-1.6-5.9-3.4-.8-.8-1.7-1.6-2.6-2.3s-1.7-1.3-2.4-1.8c-.9-.5-1.7-.5-2.4,0-.7.4-1.4,1-2,1.8-.3.6-.6,1.4-1,2.3-.4.9-.8,2-1.2,3-.4,1.1-.8,2-1.3,2.8-.5,1.1-1.1,2.2-1.7,3.1s-1.4,1.6-2.1,2.1c-1.9,1.3-3.8,1.7-5.7,1.3s-3.5-1.5-4.7-3.2c-.8-1.2-1.3-2.2-1.5-3.3s-.2-2.1,0-3.1.5-2.1.9-3.3c.4-1.2.9-2.3,1.3-3.4.5-1.1.8-2,1-2.8.3-.7.4-1.3.4-1.9s-.2-1.1-.5-1.7c-.4-.4-.8-.7-1.3-.9s-1-.3-1.6-.4c-.9,0-1.9-.1-3.1-.1s-2.4,0-3.6,0-2.3,0-3.4-.1c-1.2-.3-2.3-.7-3.3-1.2s-1.9-1.4-2.8-2.6h0s0,0,0,0Z"/>
    <path class="st4" d="M77.9,152.3c-1.2,1.8-2.7,2.9-4.6,3.3-1.9.4-3.8,0-5.7-1.2-.8-.5-1.5-1.2-2.2-2.1-.7-.9-1.3-1.9-1.8-3-.6-1.1-1.2-2.2-1.7-3.5s-1.2-2.4-1.8-3.5c-.6-1.1-1.2-1.9-1.7-2.4-.8-.9-1.7-1-2.9-.3-.7.5-1.5,1.1-2.4,1.9-.9.8-1.7,1.5-2.6,2.4-2,1.9-3.9,3.1-5.8,3.6-2,.4-3.8,0-5.7-1.2-2.1-1.4-3.3-3-3.6-4.8-.3-1.9.2-3.7,1.4-5.6.6-1,1.3-1.8,2-2.6.7-.8,1.4-1.6,2.1-2.4s1.3-1.5,1.9-2.2c.5-.7.9-1.3,1.2-1.9.4-1.3.4-2.4-.3-3.4-.5-.6-1.1-1.2-1.8-1.9-.7-.7-1.5-1.4-2.4-2.1s-1.7-1.5-2.6-2.1c-2.1-2-3.5-3.9-4-5.9s-.2-3.9,1-5.7c1.2-1.8,2.8-2.8,4.8-3.2s4.3,0,6.9,1.3c1.1.4,2.2.9,3.2,1.5,1.1.5,2.1,1,3.1,1.4,1,.4,1.9.7,2.7.9,1.1,0,2-.5,2.8-1.4.5-.4.9-1.1,1.3-1.9s.8-1.6,1.2-2.6c.4-.9.8-1.9,1.3-2.9.4-1,1-1.9,1.5-2.8,1.2-1.9,2.8-3.1,4.6-3.6,1.8-.5,3.8,0,5.9,1.4,1.8,1.2,2.9,2.8,3.3,4.8.4,2,0,4.2-.9,6.7-.4,1.1-.8,2.2-1.1,3.3s-.6,2.1-.8,2.9c0,1,.2,1.8.8,2.3.6.5,1.5.9,2.4,1.2.7,0,1.5,0,2.5,0s2.1,0,3.2,0c1.1,0,2.2,0,3.1.1,1.2,0,2.4.2,3.5.5,1.1.3,2,.7,2.8,1.2,1.9,1.2,3,2.8,3.4,4.8.4,1.9,0,3.8-1.2,5.5-.8,1.2-1.6,2-2.5,2.6s-1.9,1-2.9,1.2-2.1.4-3.4.4-2.5,0-3.6,0-2.2,0-3,.1c-.8,0-1.4,0-1.9.4-.5.3-1,.6-1.4,1.1-.2.5-.4,1-.4,1.5s0,1,.2,1.6c.2.8.6,1.8,1,2.9.5,1.1.9,2.2,1.4,3.3.4,1.1.8,2.2,1.2,3.2.2,1.2.2,2.4.1,3.5-.1,1.2-.6,2.3-1.4,3.6h0s0,0,0,0Z"/>
    <path class="st8" d="M6.4,186.4c.3-2.9.9-5.2,1.7-6.8.8-1.6,1.9-2.9,3.4-3.7,1.5-.9,3.4-1.5,5.7-1.8,3.2-.5,7.6-.6,13.1-.4,5.5.2,11.4.7,17.8,1.4,6.2.7,11.9,1.5,17.1,2.4,5.2.9,9.3,2,12.4,3.1,1.7.7,3.2,1.5,4.4,2.6s2.1,2.5,2.6,4.3.8,4.2.9,7.2c0,3-.2,6.7-.7,11.2-.6,5.5-1.5,9.9-2.8,13.2-1.2,3.3-2.8,5.7-4.7,7.1-1.9,1.4-4.3,1.9-7.2,1.6-2.4-.3-4.6-1.3-6.4-3.2s-2.6-4.6-2.2-8.2c0-.8.2-1.9.4-3.2.2-1.3.4-2.7.6-4.2.2-1.5.4-2.8.5-3.9,0-.7,0-1.4-.2-1.9-.2-.5-.7-1-1.5-1.3-.7-.4-2-.6-3.7-.8-1.6-.2-2.8-.2-3.7,0-.8.1-1.4.4-1.6.9s-.4,1.1-.5,1.8c-.1,1.2-.2,2.3-.3,3.3,0,1-.1,2-.2,2.9,0,.9-.2,2-.3,3.3-.4,3.6-1.5,6-3.4,7.4-1.9,1.4-4.6,1.9-8.2,1.5-3.2-.4-5.8-1.6-7.6-3.8-1.8-2.2-2.5-5.1-2.1-8.7,0-1,.2-2.1.4-3.3.2-1.2.3-2.4.4-3.4.1-1.1,0-1.8-.5-2.3s-1.1-.7-2-.8c0,0-.5,0-1.4-.1s-1.9-.2-3-.3-2.3-.2-3.5-.3c-1.2-.1-2.3-.3-3.3-.4-1-.1-1.6-.2-2-.2-1.4-.1-2.8-.6-4.3-1.4-1.5-.8-2.7-2-3.6-3.7-.9-1.7-1.2-4.1-.8-7.2,0,0,0,0,0,0Z"/>
    <path class="st8" d="M11.8,271.4c-1.3-5-.4-8.9,2.8-11.9,1.2-1.1,3.2-2.2,5.8-3.4s6.1-2.5,10.5-3.9c4.4-1.4,9.7-3,16.1-4.7,6.3-1.7,11.6-3.1,15.8-4,4.3-1,7.8-1.6,10.5-1.9,2.8-.3,5-.2,6.7.1,4.4.8,7.3,3.7,8.7,8.7,1.3,4.9.3,8.8-3.1,11.9-1.3,1.1-3.2,2.3-5.6,3.4s-5.8,2.4-10,3.7-9.5,2.8-15.7,4.5c-6.6,1.8-12.1,3.2-16.5,4.2-4.4,1-7.9,1.6-10.7,1.9-2.8.2-5,.2-6.8,0-4.3-.9-7.1-3.8-8.5-8.7h0Z"/>
    <path class="st8" d="M38.6,331.9c-3.1-4.2-4.6-7.8-4.4-10.8.2-3,1.6-5.5,4.3-7.5,1.8-1.4,3.5-2.1,5.1-2.1s3.1.4,4.5,1.2,2.8,1.9,4,3c2.9,3,5.5,5.2,7.9,6.4,2.4,1.3,4.4,1.3,6,0,1-.8,1.7-1.9,1.9-3.3.2-1.4.2-3.1,0-5-.2-1.9-.4-4-.5-6.2-.1-2.2,0-4.5.4-6.8.4-2.3,1.2-4.6,2.5-6.9,1.3-2.3,3.3-4.5,6-6.6,3.1-2.4,6.4-3.7,9.8-4s6.9,0,10.3,1.3c3.4,1.2,6.7,3,9.9,5.5,3.2,2.5,6,5.3,8.4,8.6,3.1,4.2,4.6,7.7,4.5,10.7-.1,2.9-1.6,5.5-4.3,7.5-1.7,1.3-3.3,2-4.8,2.1s-3-.1-4.3-.8-2.5-1.5-3.5-2.6c-2.4-2.7-4.6-4.4-6.4-5.3s-3.6-.8-5,.3c-1,.7-1.5,1.8-1.6,3.2s0,3.1.3,5,.6,4,.8,6.1.2,4.4-.2,6.8c-.3,2.3-1.2,4.7-2.4,6.9-1.3,2.3-3.3,4.5-6.1,6.6-3.5,2.6-7.1,4.1-11,4.4-3.9.4-7.7-.2-11.5-1.7s-7.5-3.7-11-6.5-6.7-6.1-9.4-9.8h0c0,0,0,0,0,0Z"/>
    <path class="st8" d="M106.3,395.8c-2.9-1.4-4.9-3.5-5.7-6.3-.9-2.8-.8-6.3.2-10.3,1-3.2,2.3-7,4-11.2,1.7-4.3,3.8-9,6.3-14.3,2.4-5.2,4.7-9.8,6.9-13.8,2.2-4,4.3-7.5,6.1-10.3,2.4-3.1,5-5.2,7.8-6.2,2.8-1,5.8-.8,8.9.7,3.2,1.5,5.3,3.4,6.2,5.7.9,2.3.7,4.9-.6,7.8-.4,1.1-.9,2.2-1.5,3.4-.5,1.2-1.1,2.3-1.6,3.4s-1,2.1-1.4,2.9c-.5,1.1-.8,2.1-.7,2.9,0,.8.7,1.5,1.8,2.1.6.4,1.2.7,1.8,1,.6.3,1.3.6,2,1,.6.3,1.2.6,1.8.8.6.3,1.1.5,1.6.6,1.4.6,2.5.7,3.2.2.7-.4,1.2-1.2,1.8-2.4.4-.9.9-1.9,1.5-3s1.1-2.3,1.7-3.5,1-2.2,1.5-3.1c1.4-2.8,3.3-4.7,5.6-5.5,2.3-.8,5.1-.5,8.2,1,3.2,1.5,5.4,3.7,6.4,6.5,1.1,2.8,1.1,6.1.1,9.9-1,3.3-2.4,7.1-4,11.3-1.7,4.3-3.7,9-6.2,14.1-2.5,5.3-4.8,10-7,14-2.2,4-4.2,7.4-6.1,10.3-2.4,3.3-5,5.5-7.8,6.7-2.8,1.2-5.6,1.1-8.7-.4-3.4-1.6-5.5-3.8-6.2-6.7-.7-2.9-.2-6.2,1.4-9.9.6-1.3,1.3-2.8,2-4.4s1.5-3.2,2.2-4.9c.8-1.7,1.5-3.2,2.2-4.6.6-1.2.8-2.1.7-2.9,0-.8-.8-1.5-2.1-2.2-.6-.4-1.1-.7-1.7-.9-.6-.3-1.1-.5-1.7-.8-.7-.4-1.4-.7-2-1-.6-.3-1.2-.5-1.9-.8-1.2-.5-2.1-.5-2.8,0-.7.4-1.2,1.2-1.8,2.4-.6,1.3-1.3,2.8-2.1,4.5-.8,1.7-1.6,3.3-2.3,4.9-.8,1.6-1.5,3-2.2,4.3-1.8,3.7-4.1,6.2-6.8,7.5-2.7,1.3-5.7,1.1-9.1-.5h.1Z"/>
    <path class="st8" d="M224.6,422.9c-2.6.2-5-.1-7-.9-2.1-.8-3.8-2.2-5.1-4.2-1.3-2-2.1-4.9-2.3-8.6,0-1.6-.2-3.4-.3-5.5,0-2.2-.2-4.5-.4-7s-.3-5-.4-7.5c0-2.5-.2-4.8-.3-7-.1-2.2-.3-4.1-.3-5.8s-.1-2.9-.2-3.6c0-1.4-.4-2.3-.8-2.7s-1.2-.6-2.2-.5c-1,0-1.9.1-2.9.2s-1.6,0-1.9.1c-2.3.1-4.3-.5-6-2-1.7-1.5-2.7-4.4-3-8.8-.2-2.8,0-5.1.7-7s2-3.4,4-4.6c2-1.2,4.9-2.1,8.6-2.8s8.6-1.2,14.6-1.6c6-.4,10.9-.5,14.7-.3,3.8.2,6.7.8,8.9,1.7,2.1.9,3.7,2.3,4.6,4,.9,1.8,1.4,4,1.6,6.8.3,4.4-.3,7.4-1.9,9.1-1.5,1.7-3.4,2.6-5.6,2.8-.5,0-1.2,0-2,.1-.8,0-1.9.1-3,.2-1,0-1.7.3-2.1.8-.4.5-.6,1.4-.5,2.8,0,.7.1,1.9.3,3.6.1,1.7.3,3.6.4,5.8s.3,4.5.6,7,.4,5,.6,7.4c.2,2.5.3,4.8.5,7,.2,2.2.3,4,.4,5.5.2,3.7-.1,6.6-1.2,8.8s-2.4,3.8-4.4,4.8c-1.9,1-4.1,1.6-6.7,1.8h0s0,0,0,0Z"/>
    <path class="st8" d="M305,402.1c-3,1.9-5.6,2.7-8.1,2.5-2.4-.2-4.7-1.2-6.8-3.1-2.1-1.9-4.1-4.4-6.1-7.4-1.5-2.4-3.1-5.2-4.6-8.5-1.5-3.2-3-6.7-4.5-10.4-1.5-3.7-2.8-7.5-3.9-11.3-1.6-5.2-2.6-9.9-3.2-14-.6-4.1-.6-7.8,0-11.1.5-3.2,1.7-6.1,3.6-8.6,1.8-2.5,4.4-4.8,7.6-6.9,3.2-2,6.3-3.3,9.3-3.9s6.2-.4,9.4.5c3.2.9,6.5,2.5,9.9,4.7,3.4,2.2,7.1,5.1,11.1,8.7,3,2.6,5.9,5.4,8.7,8.3,2.8,3,5.4,5.8,7.7,8.7,2.3,2.8,4.2,5.4,5.7,7.6,2,3.1,3.4,6,4.2,8.6s.9,5.1,0,7.3c-.8,2.2-2.6,4.3-5.5,6.1-2.4,1.5-4.5,2.4-6.3,2.6s-3.3,0-4.7-.7c-1.3-.7-2.6-1.7-3.9-2.9-1.4-1.4-2.4-2.4-3.2-3.3-.8-.8-1.5-1.5-2-2s-1.1-.8-1.6-1c-.5-.3-.9-.4-1.3-.5s-1,.1-1.7.4-1.9,1-3.3,1.9c-1.3.8-2.3,1.6-3,2.2-.7.6-1.1,1.1-1.3,1.5-.2.4-.2.9-.1,1.5s.2,1.2.4,1.9c.2.6.4,1.5.8,2.5.4,1,.8,2.4,1.5,4.1.6,1.7.9,3.3,1,4.8s-.3,3-1.1,4.4c-.8,1.4-2.4,2.9-4.7,4.4h0ZM301.4,358.4c.5-.4,1.1-.7,1.6-1,.5-.3.9-.6,1.3-.8,1-.7,1.5-1.3,1.6-1.9s-.1-1.2-.7-2.1c-.6-.9-1.3-1.8-2.2-2.7s-2-1.9-3.2-3c-1.9-1.5-3.3-2.7-4.4-3.4-1.1-.7-2-1.1-2.6-1.2s-1.3,0-1.8.4c-.5.4-.9.9-1.1,1.5-.2.7-.2,1.6,0,2.9.2,1.3.6,3,1.2,5.2.5,1.3,1,2.6,1.5,4,.4,1.4.9,2.5,1.5,3.4s1.2,1.4,1.7,1.4c.6,0,1.4-.2,2.4-.7.5-.4,1.1-.7,1.6-1,.5-.3,1.1-.7,1.6-1h0Z"/>
    <path class="st8" d="M387,327.2c-1.1,2.3-2.7,3.8-4.7,4.6s-4.5,1-7.5.4c-3.4-.6-7.5-2-12.3-4-4.8-2.1-10.5-4.7-17-7.9-6-3-11.2-5.8-15.6-8.4-4.4-2.6-7.9-5.1-10.3-7.5-2.4-2.5-3.6-5.3-3.8-8.3-.1-3,.8-6.5,2.7-10.3,1-2,2.1-3.7,3.5-5.2s3.1-2.6,5.4-3.3c2.3-.7,5.1-1,8.5-.8,3.4.1,7.8.8,13,2,4,.9,7.2,1.6,9.6,2.1,2.4.5,4.2.8,5.5,1,1.2.2,2.1.2,2.6,0,.5-.1.8-.3.9-.6.3-.5.2-1-.1-1.4s-.9-.8-1.6-1.2c-1.7-.8-3.3-1.6-5-2.4-1.6-.8-3.3-1.6-5.2-2.4s-3.8-1.8-5.9-2.8c-2.1-1-4.4-2.1-7-3.4-4.2-2.1-6.9-4.4-8.1-6.9-1.1-2.5-1.2-4.8,0-7,1-2,2.3-3.4,3.9-4.4,1.6-1,4-1.1,7.1-.5,3,.8,6.8,2.1,11.5,4,4.7,1.9,10.7,4.7,17.9,8.3,6.5,3.2,12.1,6.2,16.8,9,4.7,2.8,8.2,5.3,10.4,7.5,2.4,2.3,3.6,4.8,3.7,7.5s-.7,5.9-2.4,9.5c-.9,1.8-2,3.4-3.2,4.7s-2.8,2.3-4.6,2.9c-1.8.6-4,1-6.6,1.2s-5.7,0-9.3-.6c-3.6-.5-7.8-1.3-12.7-2.3-3.3-.7-5.9-1.3-8-1.8s-3.6-.8-4.7-.9-1.8-.2-2.2-.2-.8.3-.9.6c-.2.4-.1.8.1,1.2.3.4,1,1,2.1,1.5,2.1,1.1,4.6,2.2,7.4,3.5,2.8,1.3,5.7,2.7,8.7,4.1,3,1.4,6,2.9,9,4.4,4.4,2.2,7.3,4.5,8.6,6.9s1.2,4.9,0,7.5h0Z"/>
    <path class="st8" d="M418.4,218.8c.3,3.1-.3,5.6-1.7,7.4s-3.6,3.3-6.5,4.3c-3.6,1.1-7.9,2-13,2.6-5.1.6-11,1.2-17.8,1.7-6.4.5-12.2.9-17.3,1.1-5.1.2-9.6,0-13.3-.4-3-.4-5.3-1.5-7-3.2-1.7-1.7-2.7-4.1-2.9-7.2-.3-3.1.3-5.6,1.7-7.4,1.4-1.9,3.5-3.3,6.3-4.2,2.2-.6,4.6-1.1,7.4-1.5,2.8-.4,5.7-.7,8.8-.9,1,0,1.8-.3,2.4-.6s.8-.8.7-1.5c0-.6-.4-1.1-.9-1.6-.6-.5-1.6-1.1-3-1.8-1.6-.8-3.3-1.7-5.1-2.6s-3.5-1.8-5.2-2.7-3.4-1.9-5.1-2.8c-3.3-1.4-5.9-3-7.9-4.8-2-1.8-3.1-4.4-3.3-7.8-.3-3.9.5-6.8,2.4-8.7s4.2-3,6.8-3.2c2.2-.2,4.6.3,7.1,1.3,2.6,1.1,5.5,2.6,8.7,4.7,3.2,2.1,6.9,4.6,11,7.6.5.3,1,.6,1.5.8.5.3,1,.4,1.6.3.7,0,1.2-.2,1.6-.5.4-.3.8-.6,1.1-1.1,4.4-4.3,8.1-7.8,11.1-10.5,3-2.7,5.6-4.7,7.9-6,2.3-1.3,4.6-2.1,6.9-2.3,2-.2,3.8,0,5.6.8s3.2,1.8,4.4,3.4c1.2,1.6,1.8,3.6,2,6,.3,4-.4,7.1-2.1,9.2-1.7,2.2-3.8,3.9-6,5.3-2.1,1.6-4,3-5.6,4.3-1.6,1.3-3.3,2.5-5,3.6-1.7,1.2-3.5,2.5-5.4,3.9-1.1.8-1.9,1.4-2.4,1.9s-.8,1-.7,1.6c0,.7.4,1.1,1,1.3s1.4.3,2.5.2c1.6-.1,3.4-.2,5.5-.3,2.1,0,4.2,0,6.3-.1,2,0,3.8,0,5.3.1,3.2.5,5.5,1.6,7.2,3.2,1.6,1.6,2.6,4,2.8,7.1h0Z"/>
    <path class="st14" d="M328.6,126.9c-1.2-1.7-1.6-3.6-1.4-5.5.3-2,1.4-3.6,3.3-4.8.7-.5,1.6-.9,2.7-1.2s2.2-.5,3.5-.5c1.2-.1,2.5-.2,3.9-.3,1.4,0,2.7-.2,3.9-.3,1.2-.2,2.2-.4,2.9-.7,1.1-.4,1.6-1.2,1.4-2.6-.2-.8-.5-1.8-.8-2.9-.4-1.1-.8-2.2-1.2-3.2-1.1-2.5-1.4-4.8-1.1-6.7.3-2,1.4-3.6,3.2-4.8,2.1-1.4,4-1.9,5.9-1.5s3.4,1.6,4.7,3.5c.7.9,1.2,1.9,1.7,2.9.5,1,.9,1.9,1.4,2.9.5,1,.9,1.8,1.3,2.6.4.8.8,1.4,1.3,1.9,1,.9,2.1,1.2,3.2,1,.8-.2,1.6-.5,2.5-1s1.9-.9,2.9-1.4c1-.5,2-1,2.9-1.6,2.6-1.2,4.9-1.7,7-1.5,2,.3,3.6,1.3,4.9,3.1,1.2,1.7,1.6,3.6,1.1,5.6s-1.7,4-3.9,5.9c-.8.8-1.6,1.7-2.6,2.4-.9.8-1.7,1.6-2.4,2.4s-1.3,1.5-1.8,2.1c-.4,1.1-.3,2.1.2,3.1.2.6.7,1.3,1.2,1.9.6.6,1.2,1.3,2,2.1s1.4,1.5,2.2,2.3,1.4,1.6,2,2.5c1.3,1.9,1.8,3.7,1.6,5.6s-1.4,3.5-3.5,4.9c-1.8,1.2-3.7,1.7-5.7,1.2-2-.4-3.9-1.6-5.9-3.4-.8-.8-1.7-1.6-2.6-2.3s-1.7-1.3-2.4-1.8c-.9-.5-1.7-.5-2.4,0-.7.4-1.4,1-2,1.8-.3.6-.6,1.4-1,2.3-.4.9-.8,2-1.2,3-.4,1.1-.8,2-1.3,2.8-.5,1.1-1.1,2.2-1.7,3.1s-1.4,1.6-2.1,2.1c-1.9,1.3-3.8,1.7-5.7,1.3s-3.5-1.5-4.7-3.2c-.8-1.2-1.3-2.2-1.5-3.3s-.2-2.1,0-3.1.5-2.1.9-3.3c.4-1.2.9-2.3,1.3-3.4.5-1.1.8-2,1-2.8.3-.7.4-1.3.4-1.9s-.2-1.1-.5-1.7c-.4-.4-.8-.7-1.3-.9s-1-.3-1.6-.4c-.9,0-1.9-.1-3.1-.1s-2.4,0-3.6,0-2.3,0-3.4-.1c-1.2-.3-2.3-.7-3.3-1.2s-1.9-1.4-2.8-2.6h0s0,0,0,0Z"/>
    <path class="st14" d="M82.9,155.3c-1.2,1.8-2.7,2.9-4.6,3.3-1.9.4-3.8,0-5.7-1.2-.8-.5-1.5-1.2-2.2-2.1-.7-.9-1.3-1.9-1.8-3-.6-1.1-1.2-2.2-1.7-3.5s-1.2-2.4-1.8-3.5c-.6-1.1-1.2-1.9-1.7-2.4-.8-.9-1.7-1-2.9-.3-.7.5-1.5,1.1-2.4,1.9-.9.8-1.7,1.5-2.6,2.4-2,1.9-3.9,3.1-5.8,3.6-2,.4-3.8,0-5.7-1.2-2.1-1.4-3.3-3-3.6-4.8-.3-1.9.2-3.7,1.4-5.6.6-1,1.3-1.8,2-2.6.7-.8,1.4-1.6,2.1-2.4s1.3-1.5,1.9-2.2c.5-.7.9-1.3,1.2-1.9.4-1.3.4-2.4-.3-3.4-.5-.6-1.1-1.2-1.8-1.9-.7-.7-1.5-1.4-2.4-2.1s-1.7-1.5-2.6-2.1c-2.1-2-3.5-3.9-4-5.9s-.2-3.9,1-5.7c1.2-1.8,2.8-2.8,4.8-3.2s4.3,0,6.9,1.3c1.1.4,2.2.9,3.2,1.5,1.1.5,2.1,1,3.1,1.4,1,.4,1.9.7,2.7.9,1.1,0,2-.5,2.8-1.4.5-.4.9-1.1,1.3-1.9s.8-1.6,1.2-2.6c.4-.9.8-1.9,1.3-2.9.4-1,1-1.9,1.5-2.8,1.2-1.9,2.8-3.1,4.6-3.6,1.8-.5,3.8,0,5.9,1.4,1.8,1.2,2.9,2.8,3.3,4.8.4,2,0,4.2-.9,6.7-.4,1.1-.8,2.2-1.1,3.3s-.6,2.1-.8,2.9c0,1,.2,1.8.8,2.3.6.5,1.5.9,2.4,1.2.7,0,1.5,0,2.5,0s2.1,0,3.2,0c1.1,0,2.2,0,3.1.1,1.2,0,2.4.2,3.5.5,1.1.3,2,.7,2.8,1.2,1.9,1.2,3,2.8,3.4,4.8.4,1.9,0,3.8-1.2,5.5-.8,1.2-1.6,2-2.5,2.6s-1.9,1-2.9,1.2-2.1.4-3.4.4-2.5,0-3.6,0-2.2,0-3,.1c-.8,0-1.4,0-1.9.4-.5.3-1,.6-1.4,1.1-.2.5-.4,1-.4,1.5s0,1,.2,1.6c.2.8.6,1.8,1,2.9.5,1.1.9,2.2,1.4,3.3.4,1.1.8,2.2,1.2,3.2.2,1.2.2,2.4.1,3.5-.1,1.2-.6,2.3-1.4,3.6h0s0,0,0,0Z"/>
    <g id="Layer_10">
      <path class="st8" d="M387.7,325.6c-1.1,2.3-2.7,3.8-4.7,4.6s-4.5,1-7.5.4c-3.4-.6-7.5-2-12.3-4-4.8-2.1-10.5-4.7-17-7.9-6-3-11.2-5.8-15.6-8.4-4.4-2.6-7.9-5.1-10.3-7.5-2.4-2.5-3.6-5.3-3.8-8.3-.1-3,.8-6.5,2.7-10.3,1-2,2.1-3.7,3.5-5.2s3.1-2.6,5.4-3.3c2.3-.7,5.1-1,8.5-.8,3.4.1,7.8.8,13,2,4,.9,7.2,1.6,9.6,2.1,2.4.5,4.2.8,5.5,1,1.2.2,2.1.2,2.6,0,.5-.1.8-.3.9-.6.3-.5.2-1-.1-1.4s-.9-.8-1.6-1.2c-1.7-.8-3.3-1.6-5-2.4-1.6-.8-3.3-1.6-5.2-2.4s-3.8-1.8-5.9-2.8c-2.1-1-4.4-2.1-7-3.4-4.2-2.1-6.9-4.4-8.1-6.9-1.1-2.5-1.2-4.8,0-7,1-2,2.3-3.4,3.9-4.4,1.6-1,4-1.1,7.1-.5,3,.8,6.8,2.1,11.5,4,4.7,1.9,10.7,4.7,17.9,8.3,6.5,3.2,12.1,6.2,16.8,9,4.7,2.8,8.2,5.3,10.4,7.5,2.4,2.3,3.6,4.8,3.7,7.5s-.7,5.9-2.4,9.5c-.9,1.8-2,3.4-3.2,4.7s-2.8,2.3-4.6,2.9c-1.8.6-4,1-6.6,1.2s-5.7,0-9.3-.6c-3.6-.5-7.8-1.3-12.7-2.3-3.3-.7-5.9-1.3-8-1.8s-3.6-.8-4.7-.9-1.8-.2-2.2-.2-.8.3-.9.6c-.2.4-.1.8.1,1.2.3.4,1,1,2.1,1.5,2.1,1.1,4.6,2.2,7.4,3.5,2.8,1.3,5.7,2.7,8.7,4.1,3,1.4,6,2.9,9,4.4,4.4,2.2,7.3,4.5,8.6,6.9s1.2,4.9,0,7.5h0Z"/>
      <path class="st8" d="M419.2,217.2c.3,3.1-.3,5.6-1.7,7.4s-3.6,3.3-6.5,4.3c-3.6,1.1-7.9,2-13,2.6-5.1.6-11,1.2-17.8,1.7-6.4.5-12.2.9-17.3,1.1-5.1.2-9.6,0-13.3-.4-3-.4-5.3-1.5-7-3.2-1.7-1.7-2.7-4.1-2.9-7.2-.3-3.1.3-5.6,1.7-7.4,1.4-1.9,3.5-3.3,6.3-4.2,2.2-.6,4.6-1.1,7.4-1.5,2.8-.4,5.7-.7,8.8-.9,1,0,1.8-.3,2.4-.6s.8-.8.7-1.5c0-.6-.4-1.1-.9-1.6-.6-.5-1.6-1.1-3-1.8-1.6-.8-3.3-1.7-5.1-2.6s-3.5-1.8-5.2-2.7-3.4-1.9-5.1-2.8c-3.3-1.4-5.9-3-7.9-4.8-2-1.8-3.1-4.4-3.3-7.8-.3-3.9.5-6.8,2.4-8.7s4.2-3,6.8-3.2c2.2-.2,4.6.3,7.1,1.3,2.6,1.1,5.5,2.6,8.7,4.7,3.2,2.1,6.9,4.6,11,7.6.5.3,1,.6,1.5.8.5.3,1,.4,1.6.3.7,0,1.2-.2,1.6-.5.4-.3.8-.6,1.1-1.1,4.4-4.3,8.1-7.8,11.1-10.5,3-2.7,5.6-4.7,7.9-6,2.3-1.3,4.6-2.1,6.9-2.3,2-.2,3.8,0,5.6.8s3.2,1.8,4.4,3.4c1.2,1.6,1.8,3.6,2,6,.3,4-.4,7.1-2.1,9.2-1.7,2.2-3.8,3.9-6,5.3-2.1,1.6-4,3-5.6,4.3-1.6,1.3-3.3,2.5-5,3.6-1.7,1.2-3.5,2.5-5.4,3.9-1.1.8-1.9,1.4-2.4,1.9s-.8,1-.7,1.6c0,.7.4,1.1,1,1.3s1.4.3,2.5.2c1.6-.1,3.4-.2,5.5-.3,2.1,0,4.2,0,6.3-.1,2,0,3.8,0,5.3.1,3.2.5,5.5,1.6,7.2,3.2,1.6,1.6,2.6,4,2.8,7.1h0Z"/>
      <path class="st15" d="M149.8,116.5c-2.3,1.3-4.5,2.1-6.7,2.4s-4.4-.2-6.4-1.5c-2.1-1.2-4.1-3.4-5.9-6.6-.8-1.3-1.7-2.9-2.8-4.8-1.1-1.9-2.2-3.9-3.5-6-1.2-2.1-2.5-4.3-3.7-6.5-1.2-2.2-2.3-4.2-3.5-6.1s-2.1-3.6-2.9-5-1.4-2.5-1.8-3.2c-.7-1.2-1.3-1.9-1.9-2.1s-1.3,0-2.2.5c-.8.5-1.7,1-2.5,1.5-.8.5-1.4.8-1.6,1-2,1.2-4.1,1.5-6.3.9s-4.4-2.7-6.7-6.5c-1.4-2.4-2.2-4.6-2.5-6.6s.2-4,1.5-5.9c1.3-2,3.4-4.1,6.4-6.4,3-2.3,7.1-4.9,12.3-8,5.2-3.1,9.5-5.3,13-6.8,3.5-1.5,6.3-2.3,8.7-2.5,2.3-.1,4.3.4,5.9,1.6,1.6,1.2,3.1,3,4.5,5.4,2.2,3.8,3,6.8,2.4,9-.6,2.2-1.9,3.9-3.8,5-.4.3-1,.6-1.7,1s-1.6.9-2.6,1.5c-.8.5-1.3,1.1-1.5,1.7-.2.6.1,1.5.8,2.7.4.6,1,1.7,1.9,3.1.9,1.4,1.9,3.1,3,5,1.1,1.9,2.3,3.9,3.6,6,1.3,2.1,2.6,4.2,3.9,6.4s2.4,4.1,3.6,6c1.1,1.9,2.1,3.4,2.9,4.8,1.9,3.2,2.8,5.9,2.9,8.3,0,2.4-.5,4.5-1.7,6.3-1.2,1.8-3,3.3-5.2,4.6,0,0,0,0,0,0Z"/>
      <path class="st15" d="M191.3,99.9c-3.3,0-5.9-.9-8-3.1-2-2.1-3.6-5.2-4.4-9.3-.6-3.3-1.1-7.3-1.5-11.8-.4-4.6-.7-9.8-.8-15.6-.1-5.7-.1-10.8,0-15.4.2-4.6.4-8.6.9-12,.7-3.9,2.1-6.9,4.2-9,2.1-2.2,4.8-3.3,8.2-3.4,3.6,0,6.3.7,8.1,2.4,1.8,1.7,2.8,4.1,2.9,7.3.1,1.1.2,2.4.2,3.7,0,1.3,0,2.6,0,3.8s0,2.3,0,3.2c0,1.2.3,2.2.7,2.8.4.7,1.3,1.1,2.6,1.1.7,0,1.3,0,2,0s1.5,0,2.3,0,1.3,0,2,0c.7,0,1.2,0,1.7-.2,1.6-.1,2.5-.5,2.9-1.2s.6-1.7.5-2.9c0-1,0-2.1,0-3.4s0-2.5,0-3.9c0-1.3,0-2.4,0-3.4,0-3.2.8-5.6,2.6-7.4,1.7-1.8,4.3-2.7,7.8-2.8,3.6,0,6.5.9,8.7,3,2.2,2.1,3.7,5,4.6,8.8.6,3.4,1.1,7.4,1.5,11.9.4,4.6.7,9.7.8,15.4.1,5.9.1,11.1,0,15.7-.2,4.6-.4,8.5-.9,11.9-.7,4-2,7.2-4,9.5-2,2.3-4.6,3.5-7.9,3.6-3.7,0-6.6-1-8.5-3.3s-3-5.5-3.2-9.5c0-1.5,0-3.1-.2-4.8,0-1.7-.1-3.6-.2-5.4,0-1.8,0-3.5-.1-5.1,0-1.3-.3-2.3-.7-2.9s-1.4-1-2.8-1c-.7,0-1.3,0-1.9,0-.6,0-1.2,0-1.9,0-.8,0-1.6,0-2.3,0s-1.4,0-2,.2c-1.3.1-2.1.5-2.5,1.2-.4.7-.6,1.6-.5,2.9,0,1.5,0,3.1.1,5,0,1.9,0,3.7.1,5.4s0,3.4,0,4.8c0,4.2-.9,7.4-2.7,9.7-1.8,2.3-4.6,3.6-8.3,3.6h0q0,0,0,0Z"/>
      <path class="st15" d="M273,114.6c-4.9-2.6-8.8-4.8-11.5-6.8-2.8-2-4.7-3.9-5.7-5.6s-1.6-3.5-1.6-5.4c0-1.5.6-3.8,1.6-6.9,1-3.1,2.4-6.7,4.4-10.7,1.9-4.1,4.1-8.6,6.7-13.4,2.6-4.9,5-9.3,7.2-13.1,2.3-3.8,4.3-6.9,6.2-9.4,1.9-2.5,3.5-4.2,4.7-5.2,1.6-1.1,3.4-1.7,5.4-1.8s4.6.4,7.7,1.6c3.1,1.2,7,2.9,11.7,5.4,6,3.1,10.6,5.9,13.9,8.2,3.3,2.4,5.3,4.7,6.1,6.9.8,2.2.4,4.7-.9,7.4-1.4,2.8-3.2,4.5-5.5,5.2s-5,.2-8.3-1.6c-1.7-.9-3.3-1.7-4.8-2.6-1.6-.9-3.1-1.8-4.7-2.7-1.6-.9-3.1-1.8-4.7-2.6-1-.5-1.8-.7-2.4-.6s-1.2.7-1.9,1.8c-.4.8-.8,1.6-1.3,2.3s-.8,1.5-1.2,2.2c-.5.9-.6,1.7-.3,2.2.3.5.9,1.1,2,1.7,1.8.9,3.4,1.7,4.8,2.4,1.4.7,2.7,1.3,4.1,2s2.8,1.4,4.4,2.2c3.2,1.7,5.1,3.4,5.8,5.2.7,1.8.4,4-.9,6.4-1.3,2.5-2.9,3.9-4.8,4.4s-4.3,0-7.1-1.5c-2-1.1-4.3-2.2-6.7-3.6-2.4-1.3-5-2.7-7.5-4-1.5-.8-2.5-.5-3.1.6-.4.9-.9,1.7-1.4,2.5s-.9,1.6-1.2,2.3c-.3.7-.6,1.3-.8,1.8-.2.5-.4.9-.4,1-.3.8-.4,1.4-.2,2,.1.6.7,1.1,1.5,1.6,2.3,1.2,4.4,2.3,6.3,3.3,1.9,1,3.7,2,5.5,2.8s3.4,1.8,5.1,2.7c2,1.1,3.4,2.5,4.2,4.3.8,1.8.4,4-.9,6.6-.9,1.7-2,3-3.2,4-1.3,1-3,1.5-5.1,1.6-2.1,0-4.8-.5-8.3-1.6-3.4-1.1-7.6-3-12.6-5.6,0,0-.1,0-.1,0Z"/>
      <path class="st15" d="M9.4,191.4c.3-2.9.9-5.2,1.7-6.8.8-1.6,1.9-2.9,3.4-3.7,1.5-.9,3.4-1.5,5.7-1.8,3.2-.5,7.6-.6,13.1-.4,5.5.2,11.4.7,17.8,1.4,6.2.7,11.9,1.5,17.1,2.4,5.2.9,9.3,2,12.4,3.1,1.7.7,3.2,1.5,4.4,2.6s2.1,2.5,2.6,4.3.8,4.2.9,7.2c0,3-.2,6.7-.7,11.2-.6,5.5-1.5,9.9-2.8,13.2-1.2,3.3-2.8,5.7-4.7,7.1-1.9,1.4-4.3,1.9-7.2,1.6-2.4-.3-4.6-1.3-6.4-3.2s-2.6-4.6-2.2-8.2c0-.8.2-1.9.4-3.2.2-1.3.4-2.7.6-4.2.2-1.5.4-2.8.5-3.9,0-.7,0-1.4-.2-1.9-.2-.5-.7-1-1.5-1.3-.7-.4-2-.6-3.7-.8-1.6-.2-2.8-.2-3.7,0-.8.1-1.4.4-1.6.9s-.4,1.1-.5,1.8c-.1,1.2-.2,2.3-.3,3.3,0,1-.1,2-.2,2.9,0,.9-.2,2-.3,3.3-.4,3.6-1.5,6-3.4,7.4-1.9,1.4-4.6,1.9-8.2,1.5-3.2-.4-5.8-1.6-7.6-3.8-1.8-2.2-2.5-5.1-2.1-8.7,0-1,.2-2.1.4-3.3.2-1.2.3-2.4.4-3.4.1-1.1,0-1.8-.5-2.3s-1.1-.7-2-.8c0,0-.5,0-1.4-.1s-1.9-.2-3-.3-2.3-.2-3.5-.3c-1.2-.1-2.3-.3-3.3-.4-1-.1-1.6-.2-2-.2-1.4-.1-2.8-.6-4.3-1.4-1.5-.8-2.7-2-3.6-3.7-.9-1.7-1.2-4.1-.8-7.2,0,0,0,0,0,0Z"/>
      <path class="st15" d="M14.8,276.4c-1.3-5-.4-8.9,2.8-11.9,1.2-1.1,3.2-2.2,5.8-3.4s6.1-2.5,10.5-3.9c4.4-1.4,9.7-3,16.1-4.7,6.3-1.7,11.6-3.1,15.8-4,4.3-1,7.8-1.6,10.5-1.9,2.8-.3,5-.2,6.7.1,4.4.8,7.3,3.7,8.7,8.7,1.3,4.9.3,8.8-3.1,11.9-1.3,1.1-3.2,2.3-5.6,3.4s-5.8,2.4-10,3.7-9.5,2.8-15.7,4.5c-6.6,1.8-12.1,3.2-16.5,4.2-4.4,1-7.9,1.6-10.7,1.9-2.8.2-5,.2-6.8,0-4.3-.9-7.1-3.8-8.5-8.7h0Z"/>
      <path class="st15" d="M41.6,336.9c-3.1-4.2-4.6-7.8-4.4-10.8.2-3,1.6-5.5,4.3-7.5,1.8-1.4,3.5-2.1,5.1-2.1s3.1.4,4.5,1.2,2.8,1.9,4,3c2.9,3,5.5,5.2,7.9,6.4,2.4,1.3,4.4,1.3,6,0,1-.8,1.7-1.9,1.9-3.3.2-1.4.2-3.1,0-5-.2-1.9-.4-4-.5-6.2-.1-2.2,0-4.5.4-6.8.4-2.3,1.2-4.6,2.5-6.9,1.3-2.3,3.3-4.5,6-6.6,3.1-2.4,6.4-3.7,9.8-4s6.9,0,10.3,1.3c3.4,1.2,6.7,3,9.9,5.5,3.2,2.5,6,5.3,8.4,8.6,3.1,4.2,4.6,7.7,4.5,10.7-.1,2.9-1.6,5.5-4.3,7.5-1.7,1.3-3.3,2-4.8,2.1s-3-.1-4.3-.8-2.5-1.5-3.5-2.6c-2.4-2.7-4.6-4.4-6.4-5.3s-3.6-.8-5,.3c-1,.7-1.5,1.8-1.6,3.2s0,3.1.3,5,.6,4,.8,6.1.2,4.4-.2,6.8c-.3,2.3-1.2,4.7-2.4,6.9-1.3,2.3-3.3,4.5-6.1,6.6-3.5,2.6-7.1,4.1-11,4.4-3.9.4-7.7-.2-11.5-1.7s-7.5-3.7-11-6.5-6.7-6.1-9.4-9.8h0c0,0,0,0,0,0Z"/>
      <path class="st15" d="M109.3,400.8c-2.9-1.4-4.9-3.5-5.7-6.3-.9-2.8-.8-6.3.2-10.3,1-3.2,2.3-7,4-11.2,1.7-4.3,3.8-9,6.3-14.3,2.4-5.2,4.7-9.8,6.9-13.8,2.2-4,4.3-7.5,6.1-10.3,2.4-3.1,5-5.2,7.8-6.2,2.8-1,5.8-.8,8.9.7,3.2,1.5,5.3,3.4,6.2,5.7.9,2.3.7,4.9-.6,7.8-.4,1.1-.9,2.2-1.5,3.4-.5,1.2-1.1,2.3-1.6,3.4s-1,2.1-1.4,2.9c-.5,1.1-.8,2.1-.7,2.9,0,.8.7,1.5,1.8,2.1.6.4,1.2.7,1.8,1,.6.3,1.3.6,2,1,.6.3,1.2.6,1.8.8.6.3,1.1.5,1.6.6,1.4.6,2.5.7,3.2.2.7-.4,1.2-1.2,1.8-2.4.4-.9.9-1.9,1.5-3s1.1-2.3,1.7-3.5,1-2.2,1.5-3.1c1.4-2.8,3.3-4.7,5.6-5.5,2.3-.8,5.1-.5,8.2,1,3.2,1.5,5.4,3.7,6.4,6.5,1.1,2.8,1.1,6.1.1,9.9-1,3.3-2.4,7.1-4,11.3-1.7,4.3-3.7,9-6.2,14.1-2.5,5.3-4.8,10-7,14-2.2,4-4.2,7.4-6.1,10.3-2.4,3.3-5,5.5-7.8,6.7-2.8,1.2-5.6,1.1-8.7-.4-3.4-1.6-5.5-3.8-6.2-6.7-.7-2.9-.2-6.2,1.4-9.9.6-1.3,1.3-2.8,2-4.4s1.5-3.2,2.2-4.9c.8-1.7,1.5-3.2,2.2-4.6.6-1.2.8-2.1.7-2.9,0-.8-.8-1.5-2.1-2.2-.6-.4-1.1-.7-1.7-.9-.6-.3-1.1-.5-1.7-.8-.7-.4-1.4-.7-2-1-.6-.3-1.2-.5-1.9-.8-1.2-.5-2.1-.5-2.8,0-.7.4-1.2,1.2-1.8,2.4-.6,1.3-1.3,2.8-2.1,4.5-.8,1.7-1.6,3.3-2.3,4.9-.8,1.6-1.5,3-2.2,4.3-1.8,3.7-4.1,6.2-6.8,7.5-2.7,1.3-5.7,1.1-9.1-.5h.1Z"/>
      <path class="st15" d="M227.6,427.9c-2.6.2-5-.1-7-.9-2.1-.8-3.8-2.2-5.1-4.2-1.3-2-2.1-4.9-2.3-8.6,0-1.6-.2-3.4-.3-5.5,0-2.2-.2-4.5-.4-7s-.3-5-.4-7.5c0-2.5-.2-4.8-.3-7-.1-2.2-.3-4.1-.3-5.8s-.1-2.9-.2-3.6c0-1.4-.4-2.3-.8-2.7s-1.2-.6-2.2-.5c-1,0-1.9.1-2.9.2s-1.6,0-1.9.1c-2.3.1-4.3-.5-6-2-1.7-1.5-2.7-4.4-3-8.8-.2-2.8,0-5.1.7-7s2-3.4,4-4.6c2-1.2,4.9-2.1,8.6-2.8s8.6-1.2,14.6-1.6c6-.4,10.9-.5,14.7-.3,3.8.2,6.7.8,8.9,1.7,2.1.9,3.7,2.3,4.6,4,.9,1.8,1.4,4,1.6,6.8.3,4.4-.3,7.4-1.9,9.1-1.5,1.7-3.4,2.6-5.6,2.8-.5,0-1.2,0-2,.1-.8,0-1.9.1-3,.2-1,0-1.7.3-2.1.8-.4.5-.6,1.4-.5,2.8,0,.7.1,1.9.3,3.6.1,1.7.3,3.6.4,5.8s.3,4.5.6,7,.4,5,.6,7.4c.2,2.5.3,4.8.5,7,.2,2.2.3,4,.4,5.5.2,3.7-.1,6.6-1.2,8.8s-2.4,3.8-4.4,4.8c-1.9,1-4.1,1.6-6.7,1.8h0s0,0,0,0Z"/>
      <path class="st15" d="M308,407.1c-3,1.9-5.6,2.7-8.1,2.5-2.4-.2-4.7-1.2-6.8-3.1-2.1-1.9-4.1-4.4-6.1-7.4-1.5-2.4-3.1-5.2-4.6-8.5-1.5-3.2-3-6.7-4.5-10.4-1.5-3.7-2.8-7.5-3.9-11.3-1.6-5.2-2.6-9.9-3.2-14-.6-4.1-.6-7.8,0-11.1.5-3.2,1.7-6.1,3.6-8.6,1.8-2.5,4.4-4.8,7.6-6.9,3.2-2,6.3-3.3,9.3-3.9s6.2-.4,9.4.5c3.2.9,6.5,2.5,9.9,4.7,3.4,2.2,7.1,5.1,11.1,8.7,3,2.6,5.9,5.4,8.7,8.3,2.8,3,5.4,5.8,7.7,8.7,2.3,2.8,4.2,5.4,5.7,7.6,2,3.1,3.4,6,4.2,8.6s.9,5.1,0,7.3c-.8,2.2-2.6,4.3-5.5,6.1-2.4,1.5-4.5,2.4-6.3,2.6s-3.3,0-4.7-.7c-1.3-.7-2.6-1.7-3.9-2.9-1.4-1.4-2.4-2.4-3.2-3.3-.8-.8-1.5-1.5-2-2s-1.1-.8-1.6-1c-.5-.3-.9-.4-1.3-.5s-1,.1-1.7.4-1.9,1-3.3,1.9c-1.3.8-2.3,1.6-3,2.2-.7.6-1.1,1.1-1.3,1.5-.2.4-.2.9-.1,1.5s.2,1.2.4,1.9c.2.6.4,1.5.8,2.5.4,1,.8,2.4,1.5,4.1.6,1.7.9,3.3,1,4.8s-.3,3-1.1,4.4c-.8,1.4-2.4,2.9-4.7,4.4h0ZM304.4,363.4c.5-.4,1.1-.7,1.6-1,.5-.3.9-.6,1.3-.8,1-.7,1.5-1.3,1.6-1.9s-.1-1.2-.7-2.1c-.6-.9-1.3-1.8-2.2-2.7s-2-1.9-3.2-3c-1.9-1.5-3.3-2.7-4.4-3.4-1.1-.7-2-1.1-2.6-1.2s-1.3,0-1.8.4c-.5.4-.9.9-1.1,1.5-.2.7-.2,1.6,0,2.9.2,1.3.6,3,1.2,5.2.5,1.3,1,2.6,1.5,4,.4,1.4.9,2.5,1.5,3.4s1.2,1.4,1.7,1.4c.6,0,1.4-.2,2.4-.7.5-.4,1.1-.7,1.6-1,.5-.3,1.1-.7,1.6-1h0Z"/>
      <path class="st15" d="M390.7,330.6c-1.1,2.3-2.7,3.8-4.7,4.6s-4.5,1-7.5.4c-3.4-.6-7.5-2-12.3-4-4.8-2.1-10.5-4.7-17-7.9-6-3-11.2-5.8-15.6-8.4-4.4-2.6-7.9-5.1-10.3-7.5-2.4-2.5-3.6-5.3-3.8-8.3-.1-3,.8-6.5,2.7-10.3,1-2,2.1-3.7,3.5-5.2s3.1-2.6,5.4-3.3c2.3-.7,5.1-1,8.5-.8,3.4.1,7.8.8,13,2,4,.9,7.2,1.6,9.6,2.1,2.4.5,4.2.8,5.5,1,1.2.2,2.1.2,2.6,0,.5-.1.8-.3.9-.6.3-.5.2-1-.1-1.4s-.9-.8-1.6-1.2c-1.7-.8-3.3-1.6-5-2.4-1.6-.8-3.3-1.6-5.2-2.4s-3.8-1.8-5.9-2.8c-2.1-1-4.4-2.1-7-3.4-4.2-2.1-6.9-4.4-8.1-6.9-1.1-2.5-1.2-4.8,0-7,1-2,2.3-3.4,3.9-4.4,1.6-1,4-1.1,7.1-.5,3,.8,6.8,2.1,11.5,4,4.7,1.9,10.7,4.7,17.9,8.3,6.5,3.2,12.1,6.2,16.8,9,4.7,2.8,8.2,5.3,10.4,7.5,2.4,2.3,3.6,4.8,3.7,7.5s-.7,5.9-2.4,9.5c-.9,1.8-2,3.4-3.2,4.7s-2.8,2.3-4.6,2.9c-1.8.6-4,1-6.6,1.2s-5.7,0-9.3-.6c-3.6-.5-7.8-1.3-12.7-2.3-3.3-.7-5.9-1.3-8-1.8s-3.6-.8-4.7-.9-1.8-.2-2.2-.2-.8.3-.9.6c-.2.4-.1.8.1,1.2.3.4,1,1,2.1,1.5,2.1,1.1,4.6,2.2,7.4,3.5,2.8,1.3,5.7,2.7,8.7,4.1,3,1.4,6,2.9,9,4.4,4.4,2.2,7.3,4.5,8.6,6.9s1.2,4.9,0,7.5h0Z"/>
      <path class="st15" d="M422.2,222.2c.3,3.1-.3,5.6-1.7,7.4s-3.6,3.3-6.5,4.3c-3.6,1.1-7.9,2-13,2.6-5.1.6-11,1.2-17.8,1.7-6.4.5-12.2.9-17.3,1.1-5.1.2-9.6,0-13.3-.4-3-.4-5.3-1.5-7-3.2-1.7-1.7-2.7-4.1-2.9-7.2-.3-3.1.3-5.6,1.7-7.4,1.4-1.9,3.5-3.3,6.3-4.2,2.2-.6,4.6-1.1,7.4-1.5,2.8-.4,5.7-.7,8.8-.9,1,0,1.8-.3,2.4-.6s.8-.8.7-1.5c0-.6-.4-1.1-.9-1.6-.6-.5-1.6-1.1-3-1.8-1.6-.8-3.3-1.7-5.1-2.6s-3.5-1.8-5.2-2.7-3.4-1.9-5.1-2.8c-3.3-1.4-5.9-3-7.9-4.8-2-1.8-3.1-4.4-3.3-7.8-.3-3.9.5-6.8,2.4-8.7s4.2-3,6.8-3.2c2.2-.2,4.6.3,7.1,1.3,2.6,1.1,5.5,2.6,8.7,4.7,3.2,2.1,6.9,4.6,11,7.6.5.3,1,.6,1.5.8.5.3,1,.4,1.6.3.7,0,1.2-.2,1.6-.5.4-.3.8-.6,1.1-1.1,4.4-4.3,8.1-7.8,11.1-10.5,3-2.7,5.6-4.7,7.9-6,2.3-1.3,4.6-2.1,6.9-2.3,2-.2,3.8,0,5.6.8s3.2,1.8,4.4,3.4c1.2,1.6,1.8,3.6,2,6,.3,4-.4,7.1-2.1,9.2-1.7,2.2-3.8,3.9-6,5.3-2.1,1.6-4,3-5.6,4.3-1.6,1.3-3.3,2.5-5,3.6-1.7,1.2-3.5,2.5-5.4,3.9-1.1.8-1.9,1.4-2.4,1.9s-.8,1-.7,1.6c0,.7.4,1.1,1,1.3s1.4.3,2.5.2c1.6-.1,3.4-.2,5.5-.3,2.1,0,4.2,0,6.3-.1,2,0,3.8,0,5.3.1,3.2.5,5.5,1.6,7.2,3.2,1.6,1.6,2.6,4,2.8,7.1h0Z"/>
    </g>
  </g>
  <g id="fish_copy">
    <g id="Generative_Object__x28_45_x2C__0_x29_">
      <path d="M258.2,290.6c-8.2,2.7-21.5-6-29.4-10.9l-10.1,3.3c-9.7,3.2-19.3,4.7-29.9,5.1,3.7,4.3,5.7,8.7,6.7,13.8,1,4.8,3.6,9,7,12.4l7.3,6.9c.7.6,1.2,1.5.9,2.3s-1.1,1.2-2.1,1.2c-5.3,0-10.3-.1-15.4-1.5-4.4-1.1-7.7-3.7-11.6-6.4l-.9,10c0,.4-.4.6-.6.7s-.7,0-1.1-.2c-11.2-5.5-17.8-22.5-22.2-33.9l-3-7.9c-9.1-1.6-18-3.9-26.6-7.6l-5.1-1.3c-.4,0-1-.9-1.5-.4s-.4,1-1,1.6c-.8-1.1-.8-2.3-1.2-3.5-14.8-6.9-32.4-18.3-42.3-31.5s-2.8-4.5-2.6-7,2.1-2.6,3.7-3.5c-7.3-4.3-3.4-11.3.5-18.2-1-9.9,5.2-19.8,14.7-22.2s1.8,0,3-1.3c5.3-5.6,11.6-9.9,18-14.2,12.4-8.3,25.7-14.4,40.3-17.8,1.2-.3,2.4,0,2.8-1.4.6-7.4,1.2-14.5,2.4-21.8,0-.6.7-2.3,1.4-2,2.8,1.3,4.4,4,6.7,6.3,1.4-6.3,6.4-24.2,8.6-25s1.4.1,1.7.7l3.7,6c.7,1.2,1,2.5,2.3,3.4l3.2-7.6c.7-1.6,1.6-3.3,3.3-4.3,2,1.6,2.8,4,3.7,6.1l2.9,6.9,2.6-4.2c.3-.6,1.8-1.8,2.4-.8,2.6,3.9,4.4,8.3,5.8,12.8,1.7-.6,2.1-2.6,3.6-2.8s4.7,8.2,6.6,12.2c.9-1.1,2.2-2.5,3.3-2.3,2.7,3.2,4,7.2,5.4,11.1,1.2.4,1.5-2,2.3-1.7,1.9.6,4.6,8,5.8,12,7.3-5.7,22.2-16.3,28.7-11.8s5.4,6.2,6.5,10.3c1.6,6,2.5,12.3,1.8,18.5-.5,4.2-1.2,8.3-2.8,12.2-1.7,4.3-7.2,9-5.3,9.5,6.7,2,10.3,2,16.5-1.4,4.8-6.6,9.7-12.4,15.6-18.1,7.1-6.9,14.2-13.5,22.2-19.3.9-.6,1.9-.7,2.8-.3s1.3,1.2,1.5,2.3c1.3,19.9-4.1,39.2-11.8,57.3,3.4,10.5,6.4,20.8,8.5,31.8,1.3,7.9,2,15.3,2.2,23.9-9.3-3.9-17.6-8.8-25.3-15l-13.6-13.3c-2.4-2.4-5.3-4.5-8.9-4.1l-5.5,1.7c-2.4.7-4.5,1.9-6,4.1l3,3.2c3.1,4.5,4.3,9.6,4.7,14.9s.7,7.8-.7,11.7c-1.6,4.6-5.6,9.1-10.5,10.7ZM185.5,129l-5.6,15.9-2.1,7.2-.3,2.2,6.4-.3c.4,0,1.1.2,1.4,0s0-.7.3-1.2l8.9-22,1.8-3.3c-1.5-4.7-3.4-9.2-6.2-13.7-2.1,2.2-2.9,5-4,7.7-1.2,2.8-2.4,5.4-3.3,8.1l-6.2,17.2c-.9,2.4-2,4.9-1.8,7.2s1.9.9,1.9.1l.2-2.7c3.6-11.3,7.5-22.3,12.7-32.8-.9,3.7-2.7,6.9-3.9,10.3ZM169.2,142.8l.8.4-1.2,5.3-.3,3.1-.5,4,5-.8,3-9.6,6.3-17.2c.6-1.6.7-1.8-.2-3.3-1.8-2.9-3.1-6.4-5.7-9.2-1.6,1.2-1.8,3.2-2.5,4.9-2.4,6.4-4.2,12.6-5.7,19.3-1.2,5.3-3,10.5-3.8,15.9.4.6,2.1.5,2.6-.1-.1-4.5,1.1-8.6,2.2-12.7ZM189.3,154.2l7.3.9c3.1-6.5,6.1-12.9,9.9-19.1l.7-.9s-3.5-10.4-6.6-13.9c-2.8,4.5-4.7,8.7-6.6,13.3l-7.5,18c-.2.6-.2,1.5.1,1.8s1,.2,1.3,0,.5-.4.6-1c.7-3.6,2.3-6.7,3.7-10.1l4.6-10.8c1.1-2.4,1.9-4.9,3.6-6.9-4,9.3-7.9,18.3-11.3,28.5ZM207.6,140.2c.2,0,.3,0,.4,0,0,1.2-.9,2.4-1.6,3.5-1.5,2.2-2.5,4.4-3.5,6.8l-1.9,4.3c-.1.3-.4.7-.2,1s.8.1,1.1.2c6.8,1,13.1,3.1,19.9,5-.4-6.8-9-29.3-10.8-29.1s-10.9,17.5-13.4,23.1c0,.5,2,1,2.2.4,2.1-5.9,3.8-8.5,6.5-13l1.3-2.2ZM161.9,140.7c-.6,5.4-1,10.4-.5,15.7.4.5,1.6.1,2-.2s0-1.3.2-1.8l3.4-13.1c-1.5-2.6-3.8-4.9-6.4-7-1,1.5-1,3-1.2,4.5-.6,6.1-1.5,11.9-1.6,18.3,0,.6,1.9.2,2.3-.2s0-1.2,0-2.1l.6-9.1c.1-1.7-.2-3.3,1.2-5ZM222.9,149.9c2.7,3.8,3,8.4,3.8,12.8,0,.5,1.1,1,1.7.7-.4-3.1-1.1-6.1-2.1-9-1.5-4.3-2.7-8.7-5.7-12.7-1.2,1-1.9,2.1-2.4,3.2,2.5,5.1,4,10.1,4.8,15.6s1.5,1.8,2.8,1.6c0-4.3-1.7-8.1-2.8-12.2ZM253,181.6l11.6-9.3-10.6,11.2,3.4,3.6,7.9-6.7-7,9.1c2.3,2.6,3.1,5.4,4.6,8.6,2.9-3.3,5-6.7,6.2-10.7l1.6-8.6c1-11.5-2.4-32.4-14.9-28.2-7.8,2.6-14.7,6.9-20.9,12.3l1.5,5,5.2,3.3c4.6-6.1,9.4-11.2,15.6-15.3-.9,1.8-2.7,2.7-4,4-3.9,3.8-6.9,8.2-10,12.8l4.9,4.2c2.7-3.4,5.5-6.5,8.6-9.6,2.8-2.6,4.8-5.7,8.2-7.8-5.6,6-10.7,12-15.2,18.9,1.2,1.1,2,2.4,3.2,3ZM230.3,156.6c2.4,4.3,1,10,4.3,10.3-.4-4.6-4.1-14.4-5.9-15.3s-.8.2-1,.6c-1.4,2.2,1.4,5.7,1.5,9.6,0,1.9.5,3.1,2.3,3.9l-.9-6.2c-.1-.7-1.4-1.7-.3-2.8ZM76.8,224.1c.1.3.1.7.1.9,0,1,.2,1.9.8,2.5s1.9,1.1,3.2,1.2c6.9,0,18.2,1.8,22.8,5,3.6,2.5,5.8,6.9,7.6,10.6-.8.8.6,2.1.2,3s-.3.4-.6.1l-.6-.6c-1.2-1.3-1.8-2.7-3.4-2.9.1-.6,0-1.5-.8-1.8l-7.6-3.7-7.5-1.6c-4.3-.9-8.4-1.5-12.7-1.2l-.8.4c-.3.2-.4.8-.1,1.3,4.4,7.3,10.4,12.6,17,17.8,9.2,7.1,18.9,13.1,29.6,17.7,2.6,1.1,4.9,2.2,7.9,1.2s.6.2.7.1c.2-.1.4-.4.3-.7,1.1.6,2.1.4,3.3.2,3-.7,5.8-1.4,8.6-2.2,7.5-2.2,14.7-5.7,21.6-9.9.8-.5,1.5-1,1.7-1.6,1.7.1,5.9-4.7,7.7-7.2,4.2-5.8,7.4-12.5,9.8-19.3l2.9-8.5,1.4-5.3-8-13.7c-.6-.1-1.8.2-2.1-.3l1.7-.2-6.1-10.2c-.4-.7-1.1-.5-1.6-.4l-.2-.4.4-.8-2.4-4.1.4-.3,4.1,5.7,7.4,10.4,3.2,5.1,6.2,9.5c-1.2,1.6-1.3,3.3-1.8,5l-2.6,8.7-.8,1.6c-2.3,4.7-4.1,9.5-6.8,14.1-.7,1.2-1.6,2.3-1.7,3.6-2.2,1.3-3,3.9-6.2,6.8-6.6,5.9-13.9,9.1-22.4,12.3-.2,0-.6.2-.8.2s-.3.3-.3.7c-2.2-.5-4.7.8-7,1.5l-4,1.3c-.9.3-2.1.3-3.3,1.1,6,2.4,12,3.7,18.3,4.9.4-.6,1-.6,1.4-.7l1.9.8,8.2,1.3,12.3,1.1c1.6.1,3.4-.1,4.9.2s2.5.1,4,0l9.6-.4c5.5-.2,10.8-1.1,16.2-2.7l10.9-3.3c9.5-2.9,22.6-10.5,29-17.9,2.5-2.9,7.1-7.4,6.4-9.9,3.5-2.6,6.4-9.2,17.8-9.3l4.8,1.8c1.4.4,2.3-1.8,2.7-2.6l1.9-4.3c.6-1.4,1.7-3.1,1.9-5s-.2-1.9.9-2.9.3-1.9.3-2.5l.2-3.4c-.2-.2-.6-.1-.8,0l.3-2-1.1-5.8-2.1-5.2c-.4-1-1.1-1.5-1.4-2.1-.8-1.5-1.4-3.3-3.4-4.4-5.9,4.1-10.9,3.2-17.6,2l-4.4-9.9c-.4-.9-.9-1.5-1.3-2.2-3.9-6.1-11.5-15-17.5-17.7-.5-.8-1.2-1.5-2-2.1-5.6-4-11.8-6.4-18.1-8.9s-9.5-2.5-14.5-3.7c-12.5-2.9-24.6-2.9-37.2-.9-21.4,3.4-40.9,11.5-58.3,24.3-4.9,3.6-9,6.8-13.2,11.2-8.3,8.7-15.3,18.5-19.5,29.5ZM305.1,228.9l-7.4,1.7c-3.1.7-6,.8-9.4.2-.2,1.8-.8,3.1-1.4,4.7l8.2,3.2c5,1.9,9.7,3.2,15.1,3.7-7.1,1.2-16.5-2.6-24.3-4.7-.6,1.1-1,2.1-1.2,3.3l7.4,5.7c6.4,5.6,13.4,9.9,20.3,15.1-6.5-3.3-12.4-7.2-18.2-11.4l-10.9-7.7c-.5.5-.8,1.1-.9,1.7,5.6,5.8,11.4,11.6,17.8,16.8s11.6,7.6,17.8,10.9c-.5-10.9-2.3-21.2-5-31.6-1.7-6.7-3.4-13.1-6-19.5l3.6-8.1c2.4-6.8,4.6-13.3,6.2-20.3s3.1-16.9,2.7-25.6c0-.7-.3-1.2-.8-1.2-1.6,0-19.5,16.3-23.4,20.8l-13.7,15.9c1.1,1,1.4,1.6,2.2,2.8,8.4-8.1,17.1-15.8,26.4-23.2,1.5-1.2,2.8-2.5,4.6-2.5l-6.3,4.9c-8.2,7.1-15.6,14.8-23,22.9l1.9,5.2c3.3-1.5,5.8-3.7,8.7-5.7,6.1-4.2,11.1-9.2,16.7-13.9-5.4,6.3-11.6,11.3-17.6,16.9-2.3,2.1-4.6,3.9-7.2,5l1.3,5.4,6.4-3c3.9-1.8,7.4-4.5,11.6-5.7,1.1-.3,1,1.4,0,.9-4.3,1.1-7.6,3.7-11.1,6.3s-3.9,3.2-6.5,3.7l-.3,4.8c0,.4-.6,1-.3,1.5s.7.7,1.4.8c8.3,1.3,16.1-1.8,16.3-.8s-1,.5-1.5.6ZM79.4,210.6l5.5-8.6,2.2-2.7,5.4-6c-7.1.9-12.9,10.5-13.1,17.3ZM262.8,276.9c-6.2-1.2-11.7-4.1-17.1-7.6l-5.1,4.2,3.9,3.2c4.5,3.7,9.3,5.5,15.1,6.9-7.8-.2-15-3.9-21.1-9l-8.2,4.4c7.6,4.8,19.6,13,27.3,10.7,5.2-1.5,9.7-6.6,10.7-12.1,1.2-6.5.1-12.9-1.9-19s-3.1-5.1-5-7.3l-2.8,4c1.2,2.2,3.7,1.5,4.5,2.9-2,.3-3.7-.4-5.6-1.2l-3.6,4.8,2.4,1.9c2.4,2.6,5.2,3.7,8.4,5.3-4.8-.2-8.6-3.2-12.7-5.6-1,1.8-2.7,3-4.1,4.5.6,1.2,2,1.7,3.1,2.5,3.6,2.8,7.5,4.2,11.8,6.4ZM171.8,287.7c3.2,3.5,5.5,6.8,7.9,10.3l7.1,10.6c1.8,2.8,4.5,4.3,7.3,6-3.3-.4-5.8-2.7-7.7-5.2l-4.2-5.5c-4.3-5.6-8.1-11.5-13.3-16.2-1.4-1.2-3.9-1.3-5.6-1l11.2,13.4,7.2,8.3c2.8,3.3,5.9,5.5,9.5,7.9-4.6-1.4-7.8-4.8-10.9-8.3l-10.8-11.8-9.1-9.4c-.9-.9-2.1-1.3-3.2-1.1l3,4.4c4.4,6.3,8.7,12.6,14.1,18.2s10.3,9.4,16.5,12.6c3.5,1.9,7.6,1.9,11.5,2.2,2.6.2,5.2.7,7.8-.6-4.7-3.8-8.9-7.4-12.2-12.3-4.7-6.9-3.2-16.5-11-22.1-1.6-.9-4.1,0-5.7,0l2.8,4.8c1.6,6.1,5.1,10.6,10,14.7-5.1-2.7-8.4-7.7-11-12.9s-2.8-5.1-5.1-6.9c-1.8-.5-4.1-.5-6.1-.2ZM180.3,323.1l.6-7.2-5.9-5.2c-7.5-7.7-13.5-16.2-19.6-25.1.5,3.3,2.2,5.6,3.2,8.5,3.1,8.8,6.7,17.2,12.4,24.6,2.3,3.1,4.9,5.6,8.4,7.1.7-.9.9-1.8,1-2.8Z"/>
      <path class="st14" d="M305.1,228.9c.5-.1,1.6,0,1.5-.6-.2-1-7.9,2.1-16.3.8s-1.1-.4-1.4-.8.3-1.1.3-1.5l.3-4.8c2.6-.5,4.4-2.1,6.5-3.7,3.5-2.6,6.9-5.1,11.1-6.3,1.1.5,1.1-1.2,0-.9-4.3,1.2-7.7,3.9-11.6,5.7l-6.4,3-1.3-5.4c2.7-1.1,4.9-2.9,7.2-5,6.1-5.6,12.2-10.6,17.6-16.9-5.6,4.7-10.6,9.7-16.7,13.9-2.9,2-5.4,4.2-8.7,5.7l-1.9-5.2c7.4-8.1,14.8-15.8,23-22.9l6.3-4.9c-1.8,0-3.1,1.4-4.6,2.5-9.3,7.4-18,15-26.4,23.2-.9-1.2-1.1-1.8-2.2-2.8l13.7-15.9c3.9-4.5,21.8-20.9,23.4-20.8s.7.5.8,1.2c.4,8.8-.9,17.1-2.7,25.6s-3.8,13.5-6.2,20.3l-3.6,8.1c2.6,6.4,4.2,12.8,6,19.5,2.6,10.4,4.4,20.7,5,31.6-6.2-3.3-12.3-6.4-17.8-10.9s-12.2-11-17.8-16.8c.2-.6.4-1.2.9-1.7l10.9,7.7c5.9,4.2,11.8,8.1,18.2,11.4-6.9-5.2-13.9-9.4-20.3-15.1l-7.4-5.7c.2-1.1.6-2.1,1.2-3.3,7.8,2.1,17.1,6,24.3,4.7-5.4-.4-10.1-1.7-15.1-3.7l-8.2-3.2c.6-1.5,1.2-2.9,1.4-4.7,3.4.6,6.3.4,9.4-.2l7.4-1.7Z"/>
      <path class="st3" d="M257.1,192.3c.4.7.9,1.3,1.3,2.2l4.4,9.9c6.8,1.1,11.7,2.1,17.6-2,1.9,1.1,2.5,3,3.4,4.4-8.6,2.5-14.7,2.9-22.2-2.2-7.7-5.2-15.7-9.6-24.7-12.3-14.6-4.4-36.6-.7-52.6,1.2l-7.1.9c-.4,0-.6.4-.9.5l-4.1-5.7-.4.3,2.4,4.1-.4.8.2.4-21.2,2.9-2.5-3.2c-1.7-2.2-8.1-4.5-12-4.6s-.7-.3-.7-.4.4-.5.4-.7c-.1-.2-.4-.7-.2-.9s.3-.2.2-.6c17-5.5,34.7-9.5,53.1-10.7,14.5-1,28.7.9,42.5,4.5,7.3,1.9,13.8,4.9,20.1,8.7,1.3.8,2.1,2.2,3.6,2.5Z"/>
      <path class="st3" d="M239.7,174.6c-13.5-6.1-28.8-8.3-44.4-8.7s-18,1-27,3.4c-15.5,4.1-30.3,8.8-44.9,15.2s-14.2,8.3-20.7,14.1l27.8-7.9c-4.9,2.8-8.6,6.9-9.4,12.6-.9-.4-2-.3-3.1-.2l-21.3,1.8c-3.3,3.4-6.6,7.7-9,11.5s-1.2,2.4-2.2,3.4-1.4,2.1-2.1,3.2-2.3,1-3.8,1.2-1.8.8-2.7-.1c4.2-11.1,11.2-20.8,19.5-29.5,4.2-4.4,8.4-7.6,13.2-11.2,17.4-12.8,36.9-20.9,58.3-24.3,12.6-2,24.7-2,37.2.9,5,1.2,9.7,1.8,14.5,3.7s12.5,4.8,18.1,8.9c.8.6,1.5,1.3,2,2.1Z"/>
      <path class="st3" d="M287.4,214.1l1.1,5.8-.3,2c-11.8,1.9-23.2,0-35,0,.6-2.8.9-6.2-.6-7.6s-1.7-.3-2.6,0c-7,1.4-13.8,2.8-20.7,5-5.2,1.6-10.2,3.1-14.9,5.4l-23.1.2c.5-1.6.6-3.3,1.8-5l-6.2-9.5-3.2-5.1c15.5-2.3,30.8-4,46.5-4.8,12.7-.7,24.3,6.3,35,12s8.9,3.5,13.5,3c3.1-.3,5.8-1.5,8.7-1.4Z"/>
      <path class="st12" d="M239.7,174.6c6,2.7,13.6,11.6,17.5,17.7-1.5-.3-2.3-1.7-3.6-2.5-6.3-3.8-12.8-6.8-20.1-8.7-13.8-3.6-28-5.5-42.5-4.5-18.4,1.2-36,5.2-53.1,10.7l-6.3,2.5c.1,0,0,.5-1.1.9l-27.8,7.9c6.5-5.8,13.1-10.7,20.7-14.1,14.5-6.4,29.4-11.1,44.9-15.2,9-2.4,17.8-3.6,27-3.4,15.6.4,30.8,2.6,44.4,8.7Z"/>
      <path class="st3" d="M252.1,260.1c0-.6-.6-.7-.7-.2-9.9,7.5-20.9,12.8-33,16-16.6,4.5-33,5.3-49.7,1.4l-19-4.4c0-.4.1-.7.3-.7s.6-.1.8-.2c8.5-3.3,15.7-6.4,22.4-12.3.2.5.6.7,1.4.7l16.8.5c3.1,2.2,7,3.1,10.9,4.1,6.2,1.6,12.3,2.1,18.7.9,4.5-.8,8-3.5,11-6.5,1.5.3,2.9,0,4.5-.3l9.7-2.3c4.7-1.1,8.6-3.9,12.3-6.7.7,2.5-3.9,7-6.4,9.9Z"/>
      <path class="st12" d="M283.8,206.8c.3.6,1,1.1,1.4,2.1l2.1,5.2c-3-.1-5.6,1.1-8.7,1.4-4.6.5-9.3-.7-13.5-3-10.7-5.7-22.3-12.7-35-12-15.7.8-31,2.6-46.5,4.8l-7.4-10.4c.3,0,.5-.4.9-.5l7.1-.9c16-2,38-5.7,52.6-1.2,9,2.7,17,7.1,24.7,12.3,7.5,5.1,13.7,4.7,22.2,2.2Z"/>
      <path class="st3" d="M107,243.9l-24-2.5c5.5,3.6,11.3,9.1,16.9,10.9s13.5,2.5,20.3,3.2l12.4,1.3,22.9,2.3,12.7.8c-.2.6-.9,1.1-1.7,1.6-6.9,4.2-14.1,7.7-21.6,9.9l-18.7-5.7-14.2-4.5c3.3,2.9,6.6,4.5,10.1,6.4l10.9,5.9c0,.2-.2.5-.3.7s-.6-.2-.7-.1c-3,1-5.3-.1-7.9-1.2-10.7-4.6-20.4-10.5-29.6-17.7-6.7-5.2-12.7-10.5-17-17.8-.3-.5-.2-1.2.1-1.3l.8-.4c4.3-.3,8.5.2,12.7,1.2l7.5,1.6,7.6,3.7c.8.4,1,1.2.8,1.8Z"/>
      <path class="st14" d="M253,181.6c-1.2-.6-2-1.9-3.2-3,4.4-6.9,9.6-12.8,15.2-18.9-3.4,2-5.5,5.1-8.2,7.8-3.2,3.1-6,6.1-8.6,9.6l-4.9-4.2c3.1-4.7,6.1-9,10-12.8,1.4-1.4,3.2-2.2,4-4-6.1,4.2-10.9,9.3-15.6,15.3l-5.2-3.3-1.5-5c6.2-5.4,13.1-9.7,20.9-12.3,12.5-4.2,15.9,16.7,14.9,28.2l-1.6,8.6c-1.2,4-3.3,7.4-6.2,10.7-1.5-3.2-2.3-6-4.6-8.6l7-9.1-7.9,6.7-3.4-3.6,10.6-11.2-11.6,9.3Z"/>
      <path class="st3" d="M144.4,232.8l23.1.3c-.5,3.9-1.3,8-3.1,11.8l-4,6.2c-7.7-.5-15.1-1.6-23-2.7-8.9-1.2-17.5-2.3-26.2-4.2-1.8-3.7-3.9-8.2-7.6-10.6l33.7-.2h1.1c.2,0,.4-.4.3-.7h5.6Z"/>
      <path class="st12" d="M107,243.9c1.5.2,2.2,1.6,3.4,2.9l.6.6c.2.3.5,0,.6-.1.3-.9-1.1-2.2-.2-3,8.7,1.9,17.2,3,26.2,4.2,7.9,1.1,15.3,2.2,23,2.7-1.8,2.9-4.8,3.8-6.6,6.2,3.2-1.6,5.8-4.1,8.3-6.3,2.2.7,4.4.9,6.7,1.1l7.2.8c-1.8,2.5-6,7.3-7.7,7.2l-12.7-.8-22.9-2.3-12.4-1.3c-6.9-.7-13.7-1.1-20.3-3.2s-11.4-7.2-16.9-10.9l24,2.5Z"/>
      <path class="st14" d="M171.8,287.7c2-.3,4.3-.2,6.1.2,2.3,1.7,3.8,4.3,5.1,6.9,2.5,5.2,5.9,10.2,11,12.9-4.9-4.2-8.4-8.7-10-14.7l-2.8-4.8c1.6,0,4.1-.9,5.7,0,7.9,5.5,6.3,15.2,11,22.1,3.3,4.8,7.5,8.5,12.2,12.3-2.6,1.3-5.2.8-7.8.6-3.9-.3-8-.3-11.5-2.2-6.2-3.3-11.6-7.7-16.5-12.6s-9.7-11.8-14.1-18.2l-3-4.4c1.1-.2,2.3.2,3.2,1.1l9.1,9.4,10.8,11.8c3.1,3.4,6.3,6.9,10.9,8.3-3.6-2.4-6.6-4.6-9.5-7.9l-7.2-8.3-11.2-13.4c1.6-.3,4.2-.2,5.6,1,5.3,4.7,9.1,10.6,13.3,16.2l4.2,5.5c1.9,2.5,4.4,4.8,7.7,5.2-2.9-1.7-5.5-3.2-7.3-6l-7.1-10.6c-2.4-3.6-4.7-6.8-7.9-10.3Z"/>
      <path class="st14" d="M262.8,276.9c-4.2-2.2-8.1-3.6-11.8-6.4s-2.5-1.3-3.1-2.5c1.5-1.5,3.1-2.7,4.1-4.5,4.1,2.4,8,5.4,12.7,5.6-3.3-1.6-6.1-2.7-8.4-5.3l-2.4-1.9,3.6-4.8c1.9.8,3.6,1.5,5.6,1.2-.8-1.5-3.2-.8-4.5-2.9l2.8-4c1.9,2.2,4,4.4,5,7.3,2,6.1,3.1,12.5,1.9,19-1,5.5-5.5,10.5-10.7,12.1-7.7,2.3-19.7-5.9-27.3-10.7l8.2-4.4c6.1,5.1,13.4,8.8,21.1,9-5.8-1.5-10.7-3.2-15.1-6.9l-3.9-3.2,5.1-4.2c5.5,3.5,10.9,6.4,17.1,7.6Z"/>
      <path class="st3" d="M285.7,235.7c-6.7.6-13.2,1.9-19.7,3.8-3.7,3.1-7.1,6.3-11.2,8.7-4.9,2.8-10.5,4.1-16.1,5s-.6-.2-.8-.6c4.8-6.3,9-13.1,11.9-20.6l18.9-4.2c6.6-1.4,13.1-1.9,19.8-1.8.1-.3.1-.6.3-.7,0,.6.2,2-.3,2.5-1.1,1-.8,1.7-.9,2.9-.2,1.8-1.3,3.6-1.9,5Z"/>
      <path class="st3" d="M180.1,205.6c.3.5,1.5.2,2.1.3l8,13.7-1.4,5.3h-18.1c.4-4.1-.7-8.4-1.5-12.9,0-.6-.4-.2-.6,0-.4.5.2.9.2,1.3v10.2s-.3,1.3-.3,1.3l-13.8-.3,2.5-4.7c1.2-3.5,1.6-7.7.8-11.3,7.3-1.5,15.1-2.4,22.2-3.1Z"/>
      <path class="st12" d="M252.1,260.1c-6.3,7.4-19.4,15-29,17.9l-10.9,3.3c-5.4,1.6-10.6,2.5-16.2,2.7l-9.6.4c-1.5,0-2.4.3-4,0s-3.4,0-4.9-.2l-12.3-1.1-8.2-1.3-1.9-.8-13.8-4.2c-.9-.3-2.2,0-2.6-1.1l4-1.3c2.3-.7,4.8-2.1,7-1.5l19,4.4c16.7,3.9,33.2,3.1,49.7-1.4,12.1-3.3,23-8.6,33-16,0-.5.6-.4.7.2Z"/>
      <path class="st12" d="M124.7,224.7c3.4,4.7,8.3,8.2,14.2,8,.1.3,0,.7-.3.7h-1.1s-33.7.2-33.7.2c-4.7-3.2-16-4.9-22.8-5-1.2,0-2.4-.3-3.2-1.2s-.8-1.5-.8-2.5c1.7-.2,3.7.6,5.5-.6l26.3.3h16Z"/>
      <path class="st1" d="M120.4,213c.5,4.1,1.8,8.2,4.3,11.6h-16s-26.3-.3-26.3-.3c-1.8,1.2-3.8.4-5.5.6,0-.3,0-.7-.1-.9.9.9,1.8.2,2.7.1,1.5-.2,3,.3,3.8-1.2s1.1-2.3,2.1-3.2,1.5-2.3,2.2-3.4c6.2-.8,12.3-1.4,18.2-1.9,0-.8.7-.6,1.1-.4,1.2.8,2.9,0,4.4-.2l9.1-.9Z"/>
      <path class="st14" d="M177.8,152.2c.5,0,.8-.3,1-.5.3-.4.3-.8.3-1.2l.9-3.6,6.1-17.3c.1-.4-.4-.6-.6-.5,1.2-3.4,3-6.6,3.9-10.3-5.2,10.5-9.1,21.5-12.7,32.8l-.2,2.7c0,.7-1.9.8-1.9-.1-.2-2.4,1-4.8,1.8-7.2l6.2-17.2c1-2.8,2.1-5.4,3.3-8.1,1.2-2.7,1.9-5.4,4-7.7,2.8,4.4,4.7,9,6.2,13.7l-1.8,3.3-8.9,22c-.2.5,0,1.1-.3,1.2s-1,0-1.4,0l-6.4.3.3-2.2Z"/>
      <path class="st14" d="M201.1,154.8c1.1.2,1.3-.8,1.7-1.8,1.6-4.1,3.6-7.8,5.8-11.5l.4-.7c.2-.3,0-.8-.5-.7l2.6-4.3c-1.5,1.3-2.6,2.8-3.5,4.4l-1.3,2.2c-2.7,4.4-4.4,7.1-6.5,13-.2.6-2.2,0-2.2-.4,2.5-5.5,11.6-22.8,13.4-23.1s10.4,22.3,10.8,29.1c-6.9-1.9-13.1-4-19.9-5-.3,0-1,0-1.1-.2s0-.7.2-1Z"/>
      <path class="st14" d="M189.3,154.2c3.4-10.2,7.3-19.2,11.3-28.5-1.7,2-2.6,4.4-3.6,6.9l-4.6,10.8c-1.4,3.3-3,6.5-3.7,10.1s-.4.9-.6,1-1.1.1-1.3,0c-.4-.3-.4-1.2-.1-1.8l7.5-18c1.9-4.6,3.8-8.8,6.6-13.3,3,3.5,6.6,13.9,6.6,13.9l-.7.9c-3.8,6.2-6.9,12.6-9.9,19.1l-7.3-.9Z"/>
      <path class="st14" d="M168.5,151.6c.6.2,1.1-.3.6-.8,1.1-2.5,1-5,1.7-7.3l4.3-15.2c.4-1.6,1.5-3,1-4.5s2.1-4.7.5-4-.2.6-.3.8c-3.2,7.3-5.2,14.7-7,22.2-1,4.1-2.3,8.3-2.2,12.7-.5.6-2.2.7-2.6.1.8-5.5,2.6-10.7,3.8-15.9,1.5-6.7,3.3-12.9,5.7-19.3s.9-3.7,2.5-4.9c2.6,2.8,3.9,6.2,5.7,9.2,1,1.5.8,1.7.2,3.3l-6.3,17.2-3,9.6-5,.8.5-4Z"/>
      <path class="st3" d="M185.8,233.5c-2.4,6.8-5.6,13.6-9.8,19.3l-7.2-.8c-2.3-.2-4.5-.4-6.7-1.1l.9-1.4c2.9-2.7,5.5-6.1,6.1-10.1l.8-6.2,15.9.2Z"/>
      <path class="st12" d="M180.1,205.6c-7.1.7-14.8,1.6-22.2,3.1-.9-4-2.7-7.8-5.2-11l21.2-2.9c.5,0,1.2-.3,1.6.4l6.1,10.2-1.7.2Z"/>
      <path class="st14" d="M180.3,323.1c0,1-.2,1.9-1,2.8-3.5-1.5-6-4.1-8.4-7.1-5.6-7.4-9.3-15.9-12.4-24.6-1-2.9-2.7-5.2-3.2-8.5,6.1,8.9,12,17.5,19.6,25.1l5.9,5.2-.6,7.2Z"/>
      <path class="st12" d="M285.7,235.7l-1.9,4.3c-.4,0-.8.1-1.4,0-2.2-.3-4.4-.2-6.1.8-11.4,0-14.3,6.7-17.8,9.3s-7.6,5.6-12.3,6.7l-9.7,2.3c-1.6.4-3,.6-4.5.3,1.3-1.3,2.7-2.4,3.9-4l2-2.7c.2.4.5.6.8.6,5.6-.9,11.2-2.2,16.1-5,4.1-2.4,7.5-5.6,11.2-8.7,6.5-1.8,13-3.1,19.7-3.8Z"/>
      <path class="st3" d="M195.8,233.8c-.4,1.2-1.3,2-2.6,2.7,2.5,4.7,2.9,13.9,1.8,17.9-.7-.4-1.5-.4-2.5-.5l-12.9-1.1c.2-1.3,1-2.3,1.7-3.6,2.7-4.6,4.5-9.3,6.8-14.1l.8-1.6,7.1.2Z"/>
      <path class="st12" d="M288.2,221.9c.1,0,.6,0,.8,0l-.2,3.4c-.2,0-.2.4-.3.7-6.7-.1-13.2.3-19.8,1.8l-18.9,4.2c1.3-3.3,2.7-6.6,3.4-10.1,11.8,0,23.3,1.9,35,0Z"/>
      <polygon class="st12" points="188.7 225 185.8 233.5 169.9 233.3 170.7 225.1 188.7 225"/>
      <path class="st12" d="M214.4,224.7c-5.6,2.8-11.5,4.8-16.8,8.7s-1.4.5-1.8.4l-7.1-.2,2.6-8.7,23.1-.2Z"/>
      <path class="st12" d="M194.9,254.5c-.7,2.3-1.7,4.7-3.5,6.3l-16.8-.5c-.7,0-1.2-.3-1.4-.7,3.2-2.9,4-5.5,6.2-6.8l12.9,1.1c1,0,1.8.1,2.5.5Z"/>
      <path class="st14" d="M161.9,140.7c-1.5,1.7-1.1,3.3-1.2,5l-.6,9.1c0,.8.5,1.5,0,2.1s-2.4.8-2.3.2c.2-6.4,1-12.2,1.6-18.3s.2-3,1.2-4.5c2.6,2,4.9,4.3,6.4,7l-3.4,13.1c-.1.5.3,1.4-.2,1.8s-1.6.7-2,.2c-.5-5.3,0-10.3.5-15.7Z"/>
      <path class="st12" d="M144.9,271.6c-2.8.8-5.7,1.5-8.6,2.2s-2.3.4-3.3-.2l-10.9-5.9c-3.5-1.9-6.8-3.5-10.1-6.4l14.2,4.5,18.7,5.7Z"/>
      <path class="st14" d="M222.9,149.9c1.2,4.1,2.8,7.9,2.8,12.2-1.2.3-2.6-.4-2.8-1.6-.8-5.4-2.3-10.5-4.8-15.6.6-1.1,1.3-2.2,2.4-3.2,2.9,4,4.2,8.3,5.7,12.7,1,3,1.7,6,2.1,9-.6.2-1.6-.2-1.7-.7-.8-4.4-1.1-9-3.8-12.8Z"/>
      <path class="st5" d="M79.4,210.6c.2-6.7,6-16.4,13.1-17.3l-5.4,6-2.2,2.7-5.5,8.6Z"/>
      <path class="st6" d="M230.3,156.6c-1.1,1.1.2,2.1.3,2.8l.9,6.2c-1.8-.8-2.3-2-2.3-3.9-.1-3.9-2.9-7.4-1.5-9.6s.6-.8,1-.6c1.8.9,5.5,10.7,5.9,15.3-3.3-.3-1.9-5.9-4.3-10.3Z"/>
      <path class="st1" d="M138.8,275.7c.5,1,1.7.8,2.6,1.1l13.8,4.2c-.4,0-1,.2-1.4.7-6.3-1.1-12.3-2.5-18.3-4.9,1.2-.8,2.4-.8,3.3-1.1Z"/>
      <path class="st13" d="M168.5,151.6l.3-3.1,1.2-5.3c1.5-6.6,3.3-13.2,6-19.4.5,1.5-.5,2.9-1,4.5l-4.3,15.2c-.7,2.4-.6,4.9-1.7,7.3.5.5,0,1.1-.6.8Z"/>
      <path class="st13" d="M177.8,152.2l2.1-7.2,5.6-15.9c.2,0,.8.2.6.5l-6.1,17.3-.9,3.6c0,.3,0,.8-.3,1.2s-.5.6-1,.5Z"/>
      <path class="st0" d="M176.1,123.8c-2.7,6.2-4.5,12.8-6,19.4l-.8-.4c1.9-7.5,3.9-14.9,7-22.2s0-.6.3-.8c1.6-.8-.9,2.8-.5,4Z"/>
      <path class="st11" d="M201.1,154.8l1.9-4.3c1-2.3,2-4.5,3.5-6.8s1.6-2.3,1.6-3.5c.2,0,.4,0,.5,0,.4,0,.7.4.5.7l-.4.7c-2.3,3.7-4.2,7.4-5.8,11.5s-.7,2-1.7,1.8Z"/>
      <path class="st10" d="M283.8,240c-.4.9-1.4,3.1-2.7,2.6l-4.8-1.8c1.7-1,3.9-1.1,6.1-.8.6,0,1,0,1.4,0Z"/>
      <path class="st2" d="M208.6,140.1c-.1,0-.3,0-.5,0s-.2,0-.4,0c.9-1.6,2-3.1,3.5-4.4l-2.6,4.3Z"/>
      <path d="M137.9,187.3c0,.4,0,.5-.2.6-.2.2.1.6.2.9s-.4.5-.4.7.5.4.7.4c4,.1,10.3,2.4,12,4.6l2.5,3.2c2.5,3.2,4.2,7,5.2,11,.8,3.6.4,7.7-.8,11.3l-2.5,4.7-1.8,2.1c-2.3,2.8-5.3,4.7-8.5,6h-5.6c-5.9,0-10.8-3.3-14.2-8.1-2.5-3.5-3.8-7.5-4.3-11.6s-.8-6.7.7-9.7c.8-5.7,4.6-9.7,9.4-12.6,1-.4,1.2-.9,1.1-.9l6.3-2.5ZM153.9,222.5c6.4-10.9,1.3-24.6-9-29.1-3.5-1.5-7.5-1.7-10.9-.8-9.4,2.6-12.7,15.5-9.5,25.3,1.3,4,3.9,7.2,7,9.7,6.7,5.2,17.4,3.2,22.3-5.1Z"/>
      <path class="st12" d="M121.1,203.3c-1.5,3-1.1,6.5-.7,9.7l-9.1.9c-1.5.2-3.2,1-4.4.2.5-.6,1.5-1,1.9-1.8.5-1.3-.6-2.5-1.7-2.9s-3-.3-3.4,1.1,1,3,2.1,4.1c-6,.6-12,1.1-18.2,1.9,2.4-3.7,5.7-8.1,9-11.5l21.3-1.8c1.1,0,2.2-.2,3.1.2Z"/>
      <path d="M253.2,221.9c-.7,3.5-2.1,6.8-3.4,10.1-2.9,7.5-7.1,14.2-11.9,20.6l-2,2.7c-1.2,1.6-2.6,2.7-3.9,4-3,3-6.5,5.7-11,6.5-6.3,1.1-12.5.7-18.7-.9-3.9-1-7.8-1.9-10.9-4.1,1.8-1.7,2.8-4.1,3.5-6.3,1.2-4,.7-13.2-1.8-17.9,1.4-.7,2.3-1.5,2.6-2.7.4,0,1.3,0,1.8-.4,5.3-4,11.3-6,16.8-8.7,4.7-2.4,9.7-3.8,14.9-5.4,6.9-2.1,13.6-3.6,20.7-5s1.7-.7,2.6,0c1.5,1.4,1.2,4.8.6,7.6ZM215.8,251.8l6.7-.9c1.4-.2,2.7-.6,3.8.6-9-.3-15.7,3.9-26.1,4.6-1.6.1-2.9.1-4.4-.8l-1.4,3.4c.3.5,1.4.3,1.8-.2,7.1-.2,14,0,20.9.3l6,.6c-1.7,1.3-3.5.3-5,.3-7.3-.3-14.7.2-22.2,1.5,8.1,4,16.6,5.1,25.1,3.6,3.6-.6,6.8-2.7,9.2-5.2l4.9-4.9c5.7-7.4,10.8-15.1,14.1-23.8,1.8-4.6,4.7-13.4,2.9-15.2s-1.4-.2-2.3,0c-17.7,3.4-39.5,9.8-53.9,20.3-.8.6-1.3,1.7-1.1,2.5s.8,1.6,1.4,1.5c13.3-6.1,26.4-12.1,40.4-16.1l4.5-1.3c1.2-.4,2.5-.8,3.6-.1-7.5,1.7-14.3,4.2-21.3,7.5l-24.2,11.6-3,.7.4,7.2c6.5-.9,12.5-2.7,18.7-4.6l17.6-5.4c-.1,1.7-1.5,1.1-2,1.3l-14.3,5.3-13.8,4.6c-2,.7-4,.9-6.1,1.2s-.7,2-.1,2c6.5.6,12.6-.9,19.2-1.9Z"/>
      <path class="st12" d="M168.5,225l-1,8.1-23.1-.3c3.2-1.3,6.2-3.2,8.5-6l1.8-2.1,13.8.3Z"/>
      <path d="M170.7,225.1l-.8,8.2-.8,6.2c-.5,4-3.1,7.4-6.1,10.1l-.9,1.4c-2.5,2.2-5.1,4.7-8.3,6.3,1.8-2.5,4.8-3.3,6.6-6.2l4-6.2c1.8-3.8,2.6-7.9,3.1-11.8l1-8.1.2-1.3v-10.2c0-.3-.6-.8-.2-1.3s.5-.6.6,0c.8,4.5,1.9,8.8,1.5,13Z"/>
      <path d="M107,214.1c-.4-.2-1.1-.5-1.1.4-1-1.1-2.5-2.5-2.1-4.1s2.4-1.5,3.4-1.1,2.2,1.6,1.7,2.9-1.4,1.2-1.9,1.8Z"/>
      <path class="st5" d="M153.9,222.5c-4.9,8.3-15.6,10.4-22.3,5.1-3.2-2.5-5.8-5.7-7-9.7-3.2-9.8.1-22.7,9.5-25.3,3.4-1,7.4-.8,10.9.8,10.3,4.5,15.3,18.2,9,29.1ZM149.1,225.1c4.7-3.2,7.4-9.2,6.7-14.9s-3-9.5-6.8-12.7c-2.6-2.1-5.7-3.1-9.3-2.5-4.9.8-8.5,3.6-10.3,8.3-3.1,7.5-.9,16.8,5.6,21.8,4.4,3.3,9.9,2.7,14.1,0Z"/>
      <path class="st14" d="M215.8,251.8c-6.6.9-12.6,2.5-19.2,1.9s-.5-1.9.1-2c2.1-.2,4.1-.5,6.1-1.2l13.8-4.6,14.3-5.3c.6-.2,1.9.3,2-1.3l-17.6,5.4c-6.2,1.9-12.1,3.7-18.7,4.6l-.4-7.2,3-.7,24.2-11.6c7-3.3,13.8-5.8,21.3-7.5-1.1-.7-2.3-.2-3.6.1l-4.5,1.3c-14,4.1-27.1,10.1-40.4,16.1-.6.2-1.3-.9-1.4-1.5-.2-.8.2-1.9,1.1-2.5,14.3-10.5,36.2-16.9,53.9-20.3.8-.2,1.6-.7,2.3,0,1.8,1.8-1.2,10.6-2.9,15.2-3.4,8.7-8.4,16.4-14.1,23.8l-4.9,4.9c-2.5,2.5-5.6,4.6-9.2,5.2-8.5,1.4-17,.3-25.1-3.6,7.5-1.2,14.9-1.8,22.2-1.5s3.3,1,5-.3l-6-.6c-6.9-.4-13.7-.5-20.9-.3-.4.5-1.5.8-1.8.2l1.4-3.4c1.5.9,2.8.9,4.4.8,10.3-.7,17.1-4.9,26.1-4.6-1.1-1.3-2.4-.8-3.8-.6l-6.7.9ZM199.1,246.5c10.2-3.6,19.7-8,29.5-12.5l6.6-2.5c0-.1-.2-.3-.3-.4l-5.6,1.7-18.9,7.2-11.6,4c-.6.2-1.4-.2-1.7.7s-.2,1,.2,1.3,1,.7,1.8.4Z"/>
      <path class="st12" d="M149,197.5c-.5.5,0,1-.1,1.5-1.8-1.1-4.3-2.1-6.4-1.7s-5.5.6-7.4,2.7c-6.3,6.9-5.1,18.4,2.9,23.5,3.5,2.2,8.1,1.4,11.4,0,0,.6-.2.9-.3,1.5-4.2,2.8-9.7,3.4-14.1,0-6.6-5-8.7-14.3-5.6-21.8,1.9-4.6,5.5-7.5,10.3-8.3,3.6-.6,6.7.4,9.3,2.5Z"/>
      <path class="st7" d="M149.1,225.1c.1-.5.4-.9.3-1.5s1.1-1,1.6-1.4c6.7-6.9,4.7-18.7-2.1-23.1,0-.5-.4-1,.1-1.5,3.8,3.1,6.2,7.5,6.8,12.7s-2,11.7-6.7,14.9Z"/>
      <path class="st9" d="M199.1,246.5c-.8.3-1.5-.3-1.8-.4-.4-.3-.4-.7-.2-1.3.3-.9,1.1-.5,1.7-.7l11.6-4,18.9-7.2,5.6-1.7c0,0,.3.3.3.4l-6.6,2.5c-9.7,4.4-19.2,8.9-29.5,12.5Z"/>
      <path class="st5" d="M148.9,199c6.8,4.4,8.8,16.3,2.1,23.1s-1.6.7-1.6,1.4c-3.4,1.3-7.9,2.2-11.4,0-8-5.1-9.2-16.6-2.9-23.5,1.9-2.1,4.8-2.2,7.4-2.7s4.6.5,6.4,1.7ZM144.6,223.7c2.8,0,5.3-1.4,7-4.1,3.1-4.9,3.2-11.7-.2-16.4-3.1-4.2-8.1-6.2-12.2-3.9-6.9,3.9-8.3,12-4.6,18.7,2.1,3.8,5.3,5.9,10,5.7Z"/>
      <path d="M144.6,223.7c-4.6.2-7.9-2-10-5.7-3.7-6.7-2.3-14.7,4.6-18.7s9.1-.4,12.2,3.9c3.4,4.7,3.3,11.6.2,16.4s-4.2,4-7,4.1Z"/>
    </g>
  </g>
</svg>