<?xml version="1.0" encoding="UTF-8"?>
<svg id="Layer_1" xmlns="http://www.w3.org/2000/svg" version="1.1" viewBox="0 0 186.35 184.28">
  <!-- Generator: Adobe Illustrator 30.0.0, SVG Export Plug-In . SVG Version: 2.1.1 Build 123)  -->
  <defs>
    <style>
      .st0 {
        fill: #b845ed;
      }

      .st1 {
        fill: #00f0ff;
      }

      .st2 {
        fill: #f3f;
      }

      .st3 {
        fill: #39ff14;
      }
    </style>
  </defs>
  <path class="st1" d="M63.88,47.28c-.96.56-1.91.89-2.85,1s-1.86-.1-2.74-.62c-.89-.52-1.73-1.46-2.52-2.81-.33-.57-.72-1.25-1.17-2.05-.45-.8-.94-1.66-1.48-2.57-.53-.91-1.05-1.83-1.56-2.76-.5-.93-.99-1.8-1.47-2.61s-.88-1.52-1.22-2.14-.59-1.07-.75-1.34c-.3-.51-.57-.8-.82-.88s-.56,0-.95.23c-.36.21-.71.42-1.06.62-.34.2-.58.34-.69.41-.84.49-1.73.62-2.67.39s-1.88-1.16-2.83-2.77c-.6-1.02-.95-1.95-1.06-2.79s.1-1.68.64-2.51,1.44-1.74,2.72-2.71c1.28-.97,3.03-2.1,5.24-3.4s4.06-2.26,5.53-2.9c1.47-.64,2.7-.99,3.69-1.05.99-.06,1.83.17,2.5.67.68.51,1.31,1.27,1.91,2.29.95,1.62,1.29,2.89,1.03,3.82-.26.93-.79,1.64-1.6,2.11-.18.11-.43.25-.74.43s-.68.4-1.1.64c-.36.21-.57.45-.64.71-.07.26.05.65.34,1.15.16.27.42.71.8,1.31.37.6.8,1.31,1.27,2.12s.99,1.66,1.55,2.55c.56.9,1.11,1.8,1.65,2.71s1.04,1.76,1.52,2.55c.48.79.88,1.46,1.22,2.03.79,1.35,1.2,2.53,1.24,3.55s-.21,1.91-.73,2.66c-.53.75-1.27,1.4-2.23,1.96h.03Z"/>
  <path class="st3" d="M81.53,40.22c-1.39.04-2.52-.4-3.39-1.32-.87-.91-1.51-2.23-1.89-3.96-.24-1.42-.45-3.09-.62-5.03-.17-1.94-.29-4.16-.35-6.65-.06-2.42-.06-4.61.02-6.55.07-1.94.19-3.65.37-5.11.3-1.64.9-2.92,1.77-3.84.88-.92,2.05-1.4,3.5-1.44,1.52-.04,2.67.3,3.43,1,.76.71,1.18,1.74,1.25,3.09.05.48.08,1,.09,1.56.01.55.03,1.09.04,1.61s.03.97.03,1.35c.01.52.11.93.29,1.21.18.29.55.45,1.11.47.28.03.56.04.86.03s.62-.02.96-.02c.28,0,.55-.01.83-.02.28,0,.52-.03.73-.07.66-.05,1.07-.23,1.23-.53s.24-.71.23-1.23c-.01-.42-.01-.89-.01-1.43s0-1.08-.02-1.64c-.01-.55-.03-1.04-.04-1.46,0-1.35.36-2.4,1.09-3.15.73-.75,1.83-1.14,3.33-1.18,1.53-.04,2.76.38,3.7,1.26.94.88,1.59,2.13,1.94,3.75.25,1.45.45,3.14.62,5.08.17,1.94.29,4.12.35,6.55.06,2.49.06,4.71-.01,6.66s-.19,3.63-.37,5.05c-.3,1.71-.87,3.05-1.69,4.02-.83.97-1.95,1.48-3.37,1.52-1.59.04-2.8-.42-3.62-1.39s-1.27-2.32-1.35-4.05c-.02-.62-.04-1.31-.08-2.05-.04-.74-.06-1.51-.08-2.29-.02-.78-.04-1.5-.05-2.16-.01-.55-.11-.97-.29-1.24s-.58-.42-1.21-.44c-.28-.03-.55-.04-.81-.03-.26,0-.53.01-.81.02-.35,0-.67.02-.96.02s-.58.03-.86.07c-.55.05-.91.21-1.08.5-.17.28-.24.7-.23,1.25.02.62.03,1.33.05,2.13.02.8.04,1.57.06,2.31s.02,1.43,0,2.05c0,1.77-.37,3.15-1.14,4.14-.77.99-1.96,1.51-3.55,1.55v.03Z"/>
  <path class="st0" d="M116.28,46.49c-2.09-1.09-3.73-2.06-4.9-2.91-1.18-.85-1.99-1.64-2.42-2.38s-.66-1.5-.68-2.29c.03-.65.25-1.63.68-2.93.42-1.3,1.04-2.83,1.86-4.57.81-1.75,1.76-3.65,2.83-5.71,1.09-2.09,2.12-3.94,3.07-5.55.96-1.61,1.84-2.95,2.65-4.01.81-1.06,1.47-1.79,1.99-2.19.67-.47,1.44-.72,2.3-.76s1.95.19,3.26.67c1.31.49,2.96,1.25,4.96,2.29,2.55,1.33,4.52,2.5,5.92,3.5,1.39,1,2.25,1.98,2.58,2.93.32.95.19,2-.4,3.13-.61,1.17-1.38,1.9-2.32,2.19s-2.11.07-3.52-.67c-.71-.37-1.4-.74-2.06-1.11-.67-.37-1.33-.75-1.99-1.13s-1.33-.75-2-1.11c-.43-.22-.78-.31-1.04-.25s-.53.31-.8.75c-.18.34-.36.66-.54.98s-.36.63-.52.93c-.21.4-.26.72-.14.95.11.23.4.47.86.71.77.4,1.44.74,2.02,1.02.58.28,1.15.56,1.73.84s1.2.6,1.88.95c1.35.71,2.18,1.45,2.47,2.23.3.78.17,1.69-.37,2.74-.54,1.05-1.22,1.67-2.03,1.87s-1.81,0-3.01-.63c-.86-.45-1.81-.95-2.85-1.52-1.04-.56-2.11-1.13-3.21-1.71-.62-.32-1.05-.23-1.31.26-.19.37-.39.73-.59,1.07s-.37.67-.5.97c-.14.3-.25.56-.35.78-.1.22-.16.37-.19.43-.13.32-.16.61-.1.86.06.25.28.47.65.66.98.51,1.88.98,2.7,1.41.81.43,1.59.83,2.33,1.21s1.46.76,2.17,1.13c.86.45,1.45,1.06,1.77,1.83.32.77.19,1.71-.39,2.82-.37.71-.83,1.27-1.38,1.69-.55.42-1.27.64-2.16.66-.89.02-2.06-.21-3.51-.69-1.45-.48-3.23-1.28-5.35-2.38l-.05.04Z"/>
  <path class="st2" d="M139.08,52.57c-.51-.74-.7-1.53-.58-2.35.13-.83.59-1.51,1.39-2.06.31-.22.7-.39,1.16-.52s.95-.2,1.48-.23c.51-.06,1.06-.1,1.65-.13.59-.03,1.15-.08,1.67-.14.52-.07.93-.16,1.23-.28.48-.16.67-.52.58-1.09-.08-.36-.2-.78-.35-1.24-.15-.46-.32-.93-.51-1.38-.45-1.08-.6-2.04-.46-2.87.14-.83.6-1.52,1.37-2.05.88-.61,1.71-.82,2.49-.64s1.44.67,1.99,1.47c.28.4.51.81.71,1.22.2.41.4.82.6,1.23.2.41.39.78.57,1.1.18.32.36.58.55.79.43.38.89.53,1.38.44.32-.09.67-.23,1.05-.41s.79-.38,1.23-.6c.44-.22.85-.44,1.24-.67,1.12-.52,2.1-.72,2.96-.62.85.11,1.54.54,2.07,1.32.51.74.67,1.54.48,2.39s-.74,1.69-1.64,2.52c-.34.36-.7.71-1.09,1.03-.38.33-.73.66-1.04,1s-.57.64-.76.91c-.16.45-.13.89.09,1.33.1.27.28.54.52.81.25.27.53.56.83.88s.61.64.92.97.6.68.85,1.05c.55.8.77,1.59.66,2.38s-.61,1.49-1.49,2.1c-.77.53-1.58.71-2.41.53-.84-.18-1.67-.66-2.5-1.43-.36-.34-.73-.66-1.11-.97s-.73-.56-1.04-.77c-.39-.2-.73-.21-1.04-.04-.3.17-.59.43-.85.78-.12.25-.26.58-.42.99-.16.4-.33.84-.5,1.29-.17.46-.35.85-.54,1.19-.21.48-.46.92-.74,1.3s-.58.68-.9.9c-.8.55-1.61.74-2.42.56s-1.48-.63-1.99-1.38c-.33-.49-.54-.95-.62-1.4s-.08-.89,0-1.33.21-.9.39-1.41c.18-.5.37-.98.56-1.43.2-.45.34-.85.43-1.21.13-.3.19-.57.17-.81s-.09-.48-.22-.73c-.17-.18-.35-.31-.55-.38s-.42-.13-.66-.18c-.37-.04-.8-.06-1.3-.05s-1,0-1.51,0-.99-.03-1.43-.06c-.5-.12-.97-.29-1.4-.52s-.82-.6-1.18-1.12l-.02.02Z"/>
  <path class="st2" d="M34.6,64.63c-.49.75-1.15,1.23-1.96,1.42-.81.19-1.62.03-2.44-.5-.32-.21-.62-.5-.92-.88-.29-.38-.55-.8-.78-1.28-.25-.45-.49-.94-.74-1.48s-.5-1.03-.76-1.49c-.26-.46-.5-.8-.72-1.03-.33-.38-.74-.42-1.23-.12-.31.21-.64.48-1.02.79-.37.32-.73.65-1.09,1-.83.82-1.66,1.33-2.48,1.52-.83.19-1.63.02-2.41-.49-.9-.59-1.41-1.27-1.54-2.06-.13-.79.07-1.59.61-2.4.27-.41.55-.78.86-1.12.3-.34.61-.68.91-1.02s.57-.65.8-.94c.23-.29.4-.55.53-.8.19-.54.15-1.02-.11-1.44-.2-.26-.46-.53-.77-.82-.31-.29-.65-.59-1.02-.91s-.73-.62-1.09-.9c-.9-.84-1.47-1.67-1.69-2.5s-.08-1.64.43-2.42c.49-.76,1.17-1.2,2.03-1.35s1.84.04,2.95.56c.46.18.92.38,1.37.62.45.23.89.43,1.33.59.43.16.81.28,1.13.37.47-.02.87-.22,1.19-.59.21-.19.39-.46.55-.79s.32-.7.5-1.1c.18-.4.36-.81.55-1.22.19-.42.41-.81.65-1.19.53-.81,1.18-1.32,1.96-1.52.77-.2,1.61,0,2.51.58.78.51,1.25,1.19,1.4,2.04.15.84.03,1.8-.38,2.86-.18.46-.34.93-.48,1.4s-.25.88-.32,1.25c-.04.43.08.76.36.98.27.22.62.38,1.04.5.28.02.64.02,1.07.02s.9,0,1.38-.03c.48,0,.92,0,1.3.05.53,0,1.03.08,1.49.2.46.12.85.28,1.17.49.81.53,1.29,1.21,1.44,2.03.15.82-.03,1.61-.52,2.36-.32.49-.68.86-1.06,1.11s-.8.41-1.23.5-.91.15-1.45.17-1.05.03-1.54.02-.92,0-1.28.06c-.33,0-.6.04-.81.15-.22.11-.41.27-.59.48-.1.22-.15.44-.15.65s.04.44.09.68c.1.35.25.76.44,1.22.2.46.39.93.58,1.4.19.47.35.92.49,1.34.08.51.1,1.01.05,1.49-.05.49-.24.99-.58,1.51v-.02Z"/>
  <path class="st0" d="M4.22,79.13c.14-1.24.37-2.21.71-2.9.34-.7.82-1.23,1.46-1.59.63-.37,1.45-.62,2.44-.75,1.38-.2,3.24-.25,5.56-.15,2.33.1,4.85.3,7.57.59,2.65.29,5.08.63,7.29,1.03s3.96.84,5.27,1.33c.74.29,1.36.65,1.87,1.09s.88,1.05,1.11,1.82.35,1.8.37,3.07-.08,2.86-.29,4.75c-.26,2.34-.65,4.22-1.17,5.63-.52,1.41-1.19,2.41-2,3-.82.59-1.84.82-3.08.68-1.03-.11-1.94-.57-2.73-1.37s-1.09-1.96-.93-3.47c.04-.35.09-.8.18-1.37.08-.57.17-1.16.27-1.78.1-.62.18-1.17.23-1.65.03-.31,0-.58-.1-.79-.1-.22-.3-.41-.62-.56-.31-.16-.83-.27-1.56-.35-.69-.08-1.21-.09-1.56-.04-.36.05-.59.17-.7.37s-.18.45-.21.76c-.06.52-.1.99-.13,1.42-.03.43-.06.85-.08,1.25-.03.4-.07.87-.13,1.42-.17,1.52-.65,2.57-1.44,3.16-.8.59-1.95.81-3.47.64-1.38-.15-2.45-.69-3.22-1.61-.77-.92-1.07-2.16-.9-3.71.04-.41.1-.88.18-1.39.07-.51.13-1,.19-1.44.05-.45-.02-.77-.21-.96s-.47-.31-.85-.36c-.03,0-.23-.03-.59-.06s-.79-.08-1.27-.11-.99-.08-1.5-.14c-.52-.06-.98-.11-1.4-.15-.41-.05-.69-.08-.83-.09-.59-.06-1.2-.26-1.84-.59-.64-.33-1.15-.86-1.53-1.58-.37-.72-.49-1.74-.35-3.05h-.01Z"/>
  <path class="st3" d="M6.5,115.28c-.57-2.11-.17-3.8,1.2-5.07.52-.46,1.34-.95,2.46-1.45s2.61-1.05,4.46-1.65c1.85-.6,4.13-1.26,6.84-2,2.68-.73,4.92-1.3,6.73-1.7,1.81-.41,3.3-.67,4.47-.79,1.17-.12,2.12-.1,2.85.06,1.89.35,3.12,1.57,3.7,3.68.57,2.07.13,3.76-1.32,5.05-.55.47-1.35.96-2.4,1.46s-2.47,1.03-4.26,1.59-4.02,1.2-6.69,1.93c-2.81.77-5.14,1.37-7,1.8-1.86.43-3.37.7-4.55.81-1.18.1-2.14.1-2.89-.02-1.83-.4-3.03-1.63-3.6-3.71h0Z"/>
  <path class="st0" d="M17.91,141c-1.33-1.78-1.96-3.3-1.88-4.58.08-1.28.69-2.34,1.83-3.19.78-.58,1.5-.88,2.17-.88s1.31.17,1.93.53,1.18.79,1.68,1.28c1.23,1.29,2.35,2.2,3.36,2.74,1.01.54,1.87.55,2.56.03.44-.33.71-.8.79-1.41.09-.61.09-1.31,0-2.12-.08-.8-.16-1.68-.22-2.63-.06-.95-.01-1.91.15-2.88.16-.97.51-1.94,1.05-2.93.54-.99,1.39-1.92,2.55-2.79,1.33-1,2.72-1.57,4.18-1.71s2.92.04,4.38.55,2.87,1.28,4.22,2.33c1.35,1.05,2.54,2.26,3.59,3.65,1.33,1.77,1.97,3.29,1.92,4.54s-.66,2.32-1.83,3.19c-.72.54-1.41.84-2.06.9s-1.26-.05-1.81-.33-1.05-.64-1.48-1.1c-1.03-1.14-1.94-1.89-2.74-2.26s-1.51-.33-2.12.13c-.42.31-.65.77-.7,1.37s0,1.31.13,2.12.24,1.68.33,2.61.07,1.89-.08,2.89c-.14.99-.49,1.98-1.03,2.95-.55.97-1.42,1.91-2.61,2.81-1.47,1.1-3.03,1.73-4.67,1.88-1.64.15-3.28-.09-4.91-.73s-3.19-1.56-4.68-2.76-2.83-2.59-4.01-4.17v-.03Z"/>
  <path class="st1" d="M46.66,168.2c-1.25-.59-2.07-1.49-2.44-2.7s-.35-2.67.08-4.39c.42-1.38.98-2.97,1.7-4.78.71-1.81,1.6-3.84,2.66-6.1,1.03-2.2,2.01-4.15,2.95-5.85.93-1.71,1.81-3.17,2.61-4.4,1.01-1.33,2.11-2.21,3.31-2.64s2.46-.34,3.77.28c1.38.65,2.25,1.46,2.62,2.44.37.97.28,2.08-.27,3.32-.18.46-.38.93-.62,1.43-.23.5-.46.99-.68,1.46s-.41.88-.58,1.22c-.22.47-.32.88-.28,1.22.03.34.29.64.78.91.24.15.49.29.75.41.27.13.56.26.87.41.25.12.5.24.75.35.25.12.48.21.68.26.61.25,1.06.28,1.34.08.28-.19.53-.53.75-1,.18-.38.39-.8.63-1.28s.48-.97.72-1.47.44-.94.62-1.32c.61-1.21,1.4-1.99,2.38-2.33.98-.34,2.15-.2,3.5.44,1.38.65,2.29,1.58,2.74,2.78.45,1.21.47,2.61.06,4.22-.43,1.41-1,3.01-1.72,4.82-.71,1.81-1.59,3.81-2.62,6.01-1.06,2.26-2.06,4.24-2.99,5.95-.94,1.71-1.8,3.16-2.59,4.36-1.04,1.39-2.14,2.34-3.32,2.84-1.17.5-2.4.45-3.69-.15-1.44-.68-2.32-1.63-2.62-2.87-.3-1.23-.1-2.64.6-4.22.27-.56.55-1.19.85-1.87s.62-1.38.95-2.08c.33-.71.64-1.36.92-1.95.24-.5.33-.91.29-1.24-.04-.32-.33-.63-.88-.93-.24-.15-.47-.28-.71-.39-.24-.11-.48-.22-.73-.34-.31-.15-.61-.28-.87-.41-.27-.13-.53-.23-.8-.32-.52-.2-.91-.22-1.19-.04-.28.18-.53.52-.77,1.02-.27.56-.57,1.21-.91,1.93-.34.72-.67,1.42-.98,2.1-.32.67-.62,1.29-.92,1.84-.78,1.59-1.74,2.65-2.88,3.19-1.13.54-2.42.47-3.87-.21h.05Z"/>
  <path class="st3" d="M96.98,179.72c-1.11.07-2.11-.05-2.99-.38-.89-.32-1.62-.92-2.17-1.79-.56-.87-.89-2.08-.99-3.64-.04-.66-.08-1.44-.13-2.36-.04-.92-.1-1.9-.17-2.96s-.12-2.11-.15-3.17c-.04-1.06-.08-2.05-.14-2.99-.06-.93-.11-1.76-.13-2.47s-.05-1.22-.07-1.53c-.04-.59-.15-.97-.34-1.15s-.5-.25-.95-.23c-.42.03-.82.05-1.22.08s-.67.04-.8.05c-.97.06-1.82-.22-2.56-.85s-1.16-1.88-1.29-3.75c-.08-1.18.02-2.16.3-2.96s.84-1.45,1.7-1.96c.85-.51,2.07-.91,3.65-1.2s3.65-.52,6.21-.69,4.64-.21,6.24-.12c1.6.09,2.86.33,3.77.72.91.39,1.56.97,1.94,1.72.38.76.61,1.72.68,2.9.12,1.87-.14,3.16-.79,3.88s-1.44,1.11-2.37,1.17c-.21,0-.49.03-.86.05-.36.02-.79.05-1.27.08-.41.03-.71.14-.89.35-.18.2-.25.6-.21,1.19.02.31.06.82.12,1.53.06.71.12,1.53.19,2.46s.14,1.93.25,2.98.19,2.11.26,3.16c.07,1.06.14,2.04.22,2.96.08.92.14,1.7.18,2.36.1,1.56-.06,2.8-.49,3.73s-1.04,1.61-1.85,2.05c-.81.43-1.76.69-2.87.76v.02Z"/>
  <path class="st0" d="M131.18,170.84c-1.26.8-2.4,1.16-3.44,1.08-1.04-.08-2-.52-2.91-1.32-.9-.8-1.76-1.85-2.58-3.13-.65-1.02-1.3-2.22-1.95-3.6-.65-1.38-1.28-2.85-1.9-4.43-.62-1.58-1.17-3.18-1.67-4.8-.67-2.21-1.12-4.19-1.35-5.95-.24-1.76-.24-3.33-.01-4.71s.74-2.6,1.51-3.67c.78-1.07,1.85-2.04,3.23-2.92,1.34-.86,2.67-1.41,3.97-1.66s2.63-.18,3.98.21c1.36.39,2.76,1.06,4.21,2.01,1.45.95,3.02,2.18,4.72,3.68,1.28,1.11,2.52,2.3,3.71,3.55,1.19,1.26,2.28,2.48,3.27,3.68s1.79,2.28,2.41,3.24c.84,1.32,1.43,2.54,1.79,3.67s.37,2.17.04,3.12c-.32.95-1.1,1.81-2.33,2.59-1.03.65-1.92,1.03-2.68,1.12s-1.42,0-1.99-.31c-.56-.3-1.11-.71-1.65-1.23-.58-.58-1.04-1.04-1.38-1.4-.35-.35-.64-.63-.87-.83s-.45-.34-.66-.41c-.2-.12-.39-.19-.56-.2s-.42.05-.74.19-.79.41-1.4.8c-.56.35-.98.66-1.26.93-.29.26-.46.48-.54.65-.08.17-.09.39-.05.65s.1.52.16.79c.07.27.18.62.33,1.05.16.44.36,1.02.63,1.76.24.71.39,1.39.43,2.04s-.11,1.28-.46,1.89-1.02,1.24-2.01,1.87h0ZM129.65,152.27c.23-.15.46-.29.68-.43.22-.14.4-.26.55-.35.42-.31.65-.57.7-.79s-.05-.51-.29-.89c-.24-.38-.56-.76-.95-1.15s-.84-.81-1.34-1.28c-.79-.65-1.41-1.13-1.87-1.43-.46-.3-.83-.48-1.11-.53s-.54,0-.77.15c-.23.15-.39.37-.48.65-.09.28-.09.7-.01,1.24.08.55.25,1.29.52,2.22.23.55.44,1.12.62,1.7.19.58.4,1.06.64,1.44s.49.58.73.61c.24.03.58-.07,1.01-.3.23-.15.46-.29.68-.43.22-.14.45-.28.68-.43h.01Z"/>
  <path class="st1" d="M166.02,139c-.48.96-1.14,1.62-1.99,1.97s-1.91.41-3.19.16c-1.46-.26-3.21-.83-5.25-1.7-2.04-.88-4.45-2-7.21-3.37-2.55-1.26-4.77-2.45-6.65-3.56s-3.35-2.17-4.39-3.19c-1.01-1.08-1.54-2.27-1.6-3.55-.06-1.29.32-2.75,1.14-4.4.42-.84.91-1.57,1.47-2.2s1.33-1.09,2.29-1.39c.96-.3,2.17-.41,3.63-.35,1.46.06,3.3.34,5.54.83,1.71.38,3.07.68,4.08.89,1.02.21,1.79.36,2.32.42.53.07.89.08,1.09.02.2-.05.33-.14.39-.27.11-.22.09-.41-.06-.58s-.38-.33-.69-.49c-.71-.35-1.42-.69-2.11-1.02-.69-.32-1.42-.67-2.19-1.03s-1.6-.75-2.49-1.18c-.89-.42-1.88-.91-2.97-1.44-1.8-.89-2.94-1.87-3.43-2.92-.48-1.05-.49-2.04-.03-2.98.41-.84.97-1.46,1.66-1.88.69-.41,1.7-.48,3.03-.21,1.27.32,2.91.89,4.9,1.71,2,.82,4.53,1.99,7.6,3.51,2.76,1.37,5.14,2.65,7.13,3.83s3.47,2.24,4.43,3.18c1,.96,1.52,2.03,1.57,3.21s-.29,2.52-1.03,4.02c-.38.78-.84,1.44-1.37,1.99s-1.18.96-1.95,1.24c-.78.27-1.71.44-2.82.49s-2.42-.03-3.94-.24-3.31-.54-5.38-.98c-1.4-.31-2.53-.56-3.4-.76s-1.53-.33-1.98-.4-.77-.09-.95-.07-.32.11-.4.27c-.08.16-.06.33.06.52.12.19.41.41.88.64.9.45,1.95.95,3.14,1.5,1.2.55,2.43,1.14,3.69,1.74,1.27.61,2.54,1.23,3.81,1.86,1.89.94,3.11,1.92,3.65,2.94s.53,2.09-.02,3.21h0Z"/>
  <path class="st3" d="M179.41,92.91c.11,1.31-.14,2.37-.74,3.16s-1.52,1.4-2.78,1.81c-1.53.47-3.37.84-5.52,1.09-2.15.26-4.68.51-7.58.74-2.73.22-5.19.37-7.37.46s-4.07.04-5.65-.15c-1.27-.18-2.26-.63-2.98-1.35s-1.13-1.74-1.24-3.06.14-2.37.74-3.16c.6-.8,1.49-1.4,2.67-1.8.92-.25,1.97-.45,3.16-.62,1.19-.16,2.44-.3,3.75-.4.42-.03.75-.12,1-.26s.35-.35.29-.62c-.02-.24-.15-.47-.39-.7-.24-.22-.67-.48-1.29-.78-.69-.36-1.41-.73-2.15-1.11s-1.49-.76-2.23-1.15-1.46-.79-2.15-1.18c-1.4-.58-2.52-1.26-3.34-2.03-.83-.77-1.3-1.88-1.41-3.33-.13-1.66.21-2.89,1.03-3.71s1.79-1.27,2.89-1.35c.93-.07,1.95.11,3.04.56,1.1.45,2.32,1.12,3.68,2,1.36.88,2.92,1.97,4.69,3.25.22.12.43.24.63.34.2.11.42.15.66.13.28-.02.5-.09.66-.21.17-.12.33-.27.48-.46,1.87-1.82,3.44-3.3,4.71-4.45,1.26-1.14,2.38-2,3.34-2.56.96-.56,1.95-.89,2.95-.97.83-.07,1.62.04,2.37.33s1.37.77,1.86,1.44c.49.67.78,1.53.86,2.57.14,1.69-.17,3.01-.91,3.93-.74.93-1.6,1.67-2.56,2.24-.89.66-1.68,1.26-2.38,1.81-.7.54-1.41,1.06-2.12,1.55-.71.49-1.47,1.05-2.29,1.67-.46.32-.8.58-1.03.79s-.33.44-.31.68c.02.28.16.46.41.54s.6.11,1.05.07c.66-.05,1.44-.09,2.34-.11.9-.02,1.79-.04,2.66-.06.87-.02,1.62,0,2.25.05,1.34.21,2.36.66,3.05,1.35.7.69,1.1,1.69,1.21,3.01h-.01Z"/>
</svg>